<svg width="74" height="74" viewBox="0 0 74 74" fill="none" xmlns="http://www.w3.org/2000/svg">
<g clip-path="url(#clip0)">
<path d="M56.113 54.7969L51.0979 58.99C49.9277 59.9684 47.7517 60.0836 46.0745 58.0775L43.1393 54.5669C41.7416 52.8952 39.6478 52.0895 37.332 52.0375C32.3662 52.213 28.0662 50.1275 24.9913 46.4497C19.8472 39.9574 20.8364 30.6094 26.882 25.2708C30.0582 22.6151 34.0457 21.2695 38.0359 21.6257C42.0261 21.9819 45.8794 23.8728 48.535 27.0491C51.4702 30.5596 52.761 35.161 51.7361 39.7103C51.21 42.1384 51.9116 44.6762 53.3093 46.3479L56.524 50.1928C57.6422 51.5302 57.4504 53.6788 56.113 54.7969ZM28.4468 26.8027C23.0974 31.2754 22.3575 39.5628 26.663 45.052C29.3186 48.2283 33.1719 50.1192 37.2169 49.8615C40.3137 49.8286 42.994 50.996 44.811 53.1692L47.7462 56.6798C48.0257 57.0141 48.8643 58.0172 49.7002 57.3183L54.7153 53.1252C55.2168 52.7059 55.2716 52.092 54.8523 51.5905L51.6376 47.7456C49.8206 45.5724 49.034 42.2536 49.615 39.2116C50.4179 35.4159 49.3792 31.4558 46.8633 28.4468C44.627 25.772 41.5274 24.1031 37.8441 23.7743C34.4678 23.4729 31.1216 24.5664 28.4468 26.8027Z" fill="#CF1A38"/>
<path d="M53.5916 48.3841L45.2331 55.3726C44.7316 55.792 44.1177 55.7372 43.6984 55.2356C43.2791 54.7341 43.3339 54.1202 43.8354 53.7009L52.1939 46.7124C52.6954 46.2931 53.3093 46.3479 53.7286 46.8494C54.1479 47.3509 54.0931 47.9648 53.5916 48.3841Z" fill="#CF1A38"/>
<path d="M24.2536 21.7877C23.7521 22.207 23.1382 22.1522 22.7189 21.6507L19.9235 18.3073C19.5041 17.8058 19.559 17.1919 20.0605 16.7726C20.562 16.3533 21.1759 16.4081 21.5952 16.9096L24.3906 20.253C24.8099 20.7545 24.7551 21.3684 24.2536 21.7877Z" fill="#CF1A38"/>
<path d="M39.3679 17.1039C39.2007 17.2436 38.8663 17.5232 38.5594 17.4958C37.9455 17.441 37.5262 16.9395 37.581 16.3256L37.9646 12.0284C38.0194 11.4145 38.5209 10.9952 39.1348 11.05C39.7487 11.1048 40.168 11.6063 40.1132 12.2202L39.7296 16.5174C39.7296 16.5174 39.535 16.9641 39.3679 17.1039Z" fill="#CF1A38"/>
<path d="M56.7564 21.5953L53.413 24.3907C52.9115 24.81 52.2976 24.7552 51.8783 24.2537C51.459 23.7522 51.5138 23.1383 52.0153 22.719L55.3587 19.9236C55.8602 19.5043 56.4741 19.5591 56.8934 20.0606C57.3127 20.5621 57.2579 21.176 56.7564 21.5953Z" fill="#CF1A38"/>
<path d="M62.394 39.8883C62.2269 40.0281 61.8925 40.3076 61.5856 40.2802L57.2884 39.8966C56.6745 39.8418 56.2552 39.3403 56.31 38.7264C56.3648 38.1125 56.8663 37.6932 57.4802 37.748L61.7774 38.1316C62.3913 38.1864 62.8106 38.6879 62.7558 39.3018C62.8956 39.469 62.7284 39.6088 62.394 39.8883Z" fill="#CF1A38"/>
<path d="M35.3124 62.5311C35.1453 62.6709 34.8109 62.9504 34.504 62.923C33.8901 62.8682 33.4708 62.3667 33.5256 61.7528L33.9092 57.4557C33.964 56.8418 34.4655 56.4225 35.0794 56.4773C35.6933 56.5321 36.1126 57.0336 36.0578 57.6475L35.6742 61.9446C35.6468 62.2516 35.4796 62.3913 35.3124 62.5311Z" fill="#CF1A38"/>
<path d="M21.6505 50.9471L18.307 53.7425C17.8055 54.1618 17.1916 54.107 16.7723 53.6055C16.353 53.104 16.4078 52.4901 16.9093 52.0708L20.2528 49.2754C20.7543 48.8561 21.3682 48.9109 21.7875 49.4124C22.2068 49.9139 22.152 50.5278 21.6505 50.9471Z" fill="#CF1A38"/>
<path d="M16.9667 35.8331C16.7995 35.9728 16.4652 36.2524 16.1582 36.225L11.7213 35.6742C11.1074 35.6194 10.6881 35.1179 10.7429 34.504C10.7977 33.8901 11.2992 33.4708 11.9131 33.5256L16.2103 33.9092C16.8241 33.964 17.2434 34.4655 17.1886 35.0794C17.1612 35.3864 17.1338 35.6933 16.9667 35.8331Z" fill="#CF1A38"/>
<path d="M44.2187 32.0781C43.7172 32.4974 43.1033 32.4426 42.684 31.941C40.0284 28.7648 35.1173 28.3264 31.9411 30.982C31.4396 31.4013 30.8257 31.3465 30.4064 30.845C29.9871 30.3435 30.0419 29.7296 30.5434 29.3103C34.7226 25.8161 40.8615 26.3641 44.3557 30.5433C44.775 31.0449 44.7202 31.6587 44.2187 32.0781Z" fill="#CF1A38"/>
</g>
<defs>
<clipPath id="clip0">
<rect width="52.2968" height="52.2968" fill="white" transform="translate(0 33.5449) rotate(-39.8987)"/>
</clipPath>
</defs>
</svg>
