<svg width="142" height="142" viewBox="0 0 142 142" fill="none" xmlns="http://www.w3.org/2000/svg">
<g clip-path="url(#clip0)">
<path d="M141.726 77.5592C140.451 64.7352 134.722 52.6453 125.593 43.5164C117.792 35.7154 108.244 30.7024 98.1965 28.4733V21.4264C102.3 20.4055 105.35 16.691 105.35 12.2759C105.35 7.07618 101.12 2.84607 95.9206 2.84607H75.9515C70.7518 2.84607 66.5217 7.07618 66.5217 12.2759C66.5217 16.6907 69.5719 20.4053 73.6753 21.4264V28.493C63.6589 30.7315 54.142 35.7376 46.3629 43.5167C44.6605 45.219 43.0907 47.0049 41.6538 48.8609C41.5842 48.8556 41.5146 48.8503 41.4436 48.8503H21.6795C20.148 48.8503 18.906 50.092 18.906 51.6238C18.906 53.1556 20.148 54.3973 21.6795 54.3973H37.8799C35.8464 57.8018 34.2067 61.3771 32.9587 65.0575H2.77348C1.24196 65.0575 0 66.2992 0 67.8309C0 69.3627 1.24196 70.6044 2.77348 70.6044H31.3914C30.5921 74.1132 30.1333 77.684 30.0149 81.2648H17.7503C16.2188 81.2648 14.9768 82.5065 14.9768 84.0383C14.9768 85.5701 16.2188 86.8118 17.7503 86.8118H30.1034C30.3374 90.4018 30.9146 93.9729 31.8351 97.4722H13.8674C12.3359 97.4722 11.0939 98.7139 11.0939 100.246C11.0939 101.778 12.3359 103.019 13.8674 103.019H33.6052C36.3259 110.217 40.578 116.963 46.3629 122.748C55.5004 131.885 67.6028 137.616 80.4401 138.884C82.2723 139.065 84.1058 139.154 85.9369 139.154C96.7595 139.154 107.445 136.022 116.511 130.118C117.795 129.282 118.158 127.564 117.322 126.28C116.486 124.997 114.768 124.634 113.484 125.47C93.638 138.393 67.0589 135.599 50.2852 118.825C30.604 99.1441 30.604 67.1207 50.2852 47.4392C69.966 27.7583 101.989 27.7583 121.671 47.4392C138.423 64.191 141.232 90.7474 128.351 110.584C127.517 111.869 127.882 113.586 129.167 114.42C130.452 115.255 132.169 114.889 133.003 113.605C139.885 103.006 142.983 90.2049 141.726 77.5592ZM72.0686 12.2762C72.0686 10.1351 73.8104 8.39331 75.9515 8.39331H95.9206C98.0617 8.39331 99.8034 10.1351 99.8034 12.2762C99.8034 14.4173 98.0617 16.1591 95.9206 16.1591H95.423H76.4488H75.9515C73.8104 16.1591 72.0686 14.417 72.0686 12.2762ZM79.2223 27.5395V21.706H92.6495V27.5295C88.1909 26.9992 83.6801 27.0025 79.2223 27.5395Z" fill="#929292"/>
<path d="M85.9781 40.1069C62.2543 40.1069 42.9534 59.4076 42.9534 83.1317C42.9534 106.856 62.2543 126.156 85.9781 126.156C109.702 126.156 129.003 106.856 129.003 83.1317C129.003 59.4076 109.702 40.1069 85.9781 40.1069ZM85.9781 120.609C65.3126 120.609 48.5003 103.797 48.5003 83.1317C48.5003 62.4665 65.3126 45.6539 85.9781 45.6539C106.644 45.6539 123.456 62.4665 123.456 83.1317C123.456 103.797 106.644 120.609 85.9781 120.609Z" fill="#929292"/>
<path d="M103.522 61.6656L89.7851 75.4023C88.6363 74.8343 87.3442 74.5134 85.9782 74.5134C84.612 74.5134 83.3201 74.8343 82.1714 75.4023L76.0234 69.2544C74.9401 68.1713 73.1845 68.1713 72.1009 69.2544C71.0178 70.3374 71.0178 72.0936 72.1009 73.1766L78.2488 79.3246C77.6805 80.4734 77.3599 81.7655 77.3599 83.1315C77.3599 87.8835 81.2259 91.7498 85.9782 91.7498C90.7306 91.7498 94.5966 87.8835 94.5966 83.1315C94.5966 81.7655 94.2757 80.4734 93.7077 79.3246L107.041 65.9908L107.444 65.5878C108.527 64.5048 108.527 62.7486 107.444 61.6656C106.361 60.5825 104.606 60.5825 103.522 61.6656ZM85.9782 86.2031C84.2848 86.2031 82.9069 84.8252 82.9069 83.1317C82.9069 81.4383 84.2848 80.0604 85.9782 80.0604C87.6717 80.0604 89.0496 81.4383 89.0496 83.1317C89.0496 84.8252 87.6717 86.2031 85.9782 86.2031Z" fill="#EE4540"/>
<path d="M115.632 80.3921H113.062C111.531 80.3921 110.289 81.6338 110.289 83.1655C110.289 84.6973 111.531 85.939 113.062 85.939H115.632C117.163 85.939 118.405 84.6973 118.405 83.1655C118.405 81.6338 117.163 80.3921 115.632 80.3921Z" fill="#EE4540"/>
<path d="M58.8938 80.3245H56.3245C54.793 80.3245 53.551 81.5661 53.551 83.0979C53.551 84.6297 54.793 85.8713 56.3245 85.8713H58.8938C60.4253 85.8713 61.6672 84.6297 61.6672 83.0979C61.6672 81.5661 60.4253 80.3245 58.8938 80.3245Z" fill="#EE4540"/>
<path d="M86.012 58.8207C87.5435 58.8207 88.7854 57.579 88.7854 56.0472V53.4779C88.7854 51.9461 87.5435 50.7045 86.012 50.7045C84.4805 50.7045 83.2385 51.9461 83.2385 53.4779V56.0472C83.2385 57.579 84.4805 58.8207 86.012 58.8207Z" fill="#EE4540"/>
<path d="M85.9443 107.443C84.4128 107.443 83.1709 108.684 83.1709 110.216V112.785C83.1709 114.317 84.4128 115.559 85.9443 115.559C87.4758 115.559 88.7178 114.317 88.7178 112.785V110.216C88.7178 108.684 87.4758 107.443 85.9443 107.443Z" fill="#EE4540"/>
</g>
<defs>
<clipPath id="clip0">
<rect width="142" height="142" fill="white"/>
</clipPath>
</defs>
</svg>
