<svg width="60" height="60" viewBox="0 0 60 60" fill="none" xmlns="http://www.w3.org/2000/svg">
<g clip-path="url(#clip0)">
<path d="M29.9995 11.9466C30.6466 11.9466 31.1714 11.4218 31.1714 10.7747V4.80518C31.1714 4.15807 30.6467 3.6333 29.9995 3.6333C29.3523 3.6333 28.8276 4.15795 28.8276 4.80518V10.7747C28.8278 11.4218 29.3524 11.9466 29.9995 11.9466Z" fill="#EC1E27"/>
<path d="M21.1889 13.8716C21.4117 14.2251 21.7922 14.4187 22.1814 14.4187C22.3949 14.4187 22.6111 14.3604 22.805 14.2382C23.3525 13.8932 23.5166 13.1695 23.1716 12.6219L20.0493 7.6678C19.7041 7.1203 18.9805 6.95612 18.4331 7.30124C17.8856 7.64624 17.7216 8.36987 18.0666 8.91749L21.1889 13.8716Z" fill="#EC1E27"/>
<path d="M37.1978 14.2384C37.3917 14.3604 37.6077 14.4186 37.821 14.4186C38.2103 14.4186 38.591 14.2248 38.8138 13.871L41.9329 8.91693C42.2776 8.36919 42.1132 7.6458 41.5655 7.3008C41.0175 6.95615 40.2944 7.12068 39.9495 7.66818L36.8304 12.6223C36.4857 13.1701 36.6502 13.8935 37.1978 14.2384Z" fill="#EC1E27"/>
<path d="M59.6223 31.2224L57.5861 27.6253C57.2671 27.0619 56.5521 26.8639 55.9892 27.1828C55.4259 27.5017 55.2278 28.2167 55.5467 28.7798L57.5819 32.3753C57.6839 32.556 57.6574 32.7303 57.6325 32.818C57.6086 32.9025 57.5428 33.0585 57.3705 33.1537L54.2324 34.8919C53.9537 35.0459 53.5898 34.9486 53.4378 34.6805L52.6406 33.2703C52.6373 33.2639 52.6335 33.2581 52.6301 33.2519L44.3883 18.6744C44.2865 18.495 44.3123 18.323 44.3367 18.2364C44.3602 18.1526 44.4256 17.9978 44.5979 17.9025L47.7397 16.1639C48.022 16.0076 48.3769 16.1025 48.5313 16.376L50.3681 19.6213C50.6869 20.1846 51.4021 20.3826 51.9651 20.0639C52.5284 19.7452 52.7265 19.0301 52.4077 18.4669L50.5717 15.223C49.7887 13.8348 48.0096 13.3369 46.6054 14.113L43.4637 15.8516C42.7839 16.2273 42.2928 16.8483 42.0809 17.6005C41.881 18.3098 41.9525 19.0501 42.2798 19.7L40.5492 20.2015C39.8119 20.4148 39.3645 20.5305 39.1162 20.5305C39.1151 20.5305 39.1142 20.5305 39.1133 20.5305C38.9423 20.5299 38.7558 20.4646 38.2237 20.263C37.9823 20.1716 37.6817 20.0577 37.3122 19.9288L34.246 18.8569C32.5502 18.2646 31.7853 18.2965 30.6772 18.3976L25.4487 18.8656C23.0653 19.0767 21.5457 19.6144 20.7069 20.5469L17.7272 19.6835C18.0479 19.0366 18.1167 18.3033 17.9186 17.6005C17.7067 16.8488 17.216 16.2279 16.5369 15.8522L13.3969 14.1128C11.9916 13.336 10.2114 13.8341 9.42826 15.222L0.380915 31.2208C-0.00638964 31.9027 -0.102249 32.6958 0.111267 33.4541C0.323376 34.2072 0.814392 34.8287 1.49291 35.204L4.63283 36.9432C5.08178 37.1914 5.56951 37.3092 6.0508 37.3092C7.07326 37.3092 8.06724 36.7773 8.6015 35.8341L8.93326 35.2472C9.83865 35.6458 10.5988 36.2248 11.1169 36.9103C10.6109 37.5017 10.2922 38.2314 10.2028 39.0251C10.0846 40.0748 10.3811 41.1046 11.0376 41.9255C11.6885 42.7394 12.6192 43.2529 13.6599 43.3738C13.5497 44.4146 13.8474 45.4343 14.4988 46.2461C15.1722 47.088 16.1239 47.5791 17.1194 47.695C17.0097 48.7342 17.3063 49.753 17.9558 50.5653C18.6063 51.3809 19.5372 51.8955 20.579 52.0164C20.4687 53.058 20.7664 54.0783 21.4178 54.8902C22.1943 55.861 23.3406 56.3664 24.4979 56.3663C25.3618 56.3663 26.2318 56.0846 26.9581 55.5045L29.4118 53.5411C29.6067 53.3856 29.7837 53.2137 29.943 53.0285L31.3446 54.1482C32.0694 54.7266 32.9374 55.0076 33.8001 55.0075C34.9579 55.0074 36.1061 54.5014 36.8837 53.5296C37.2935 53.0173 37.5529 52.4325 37.6701 51.8289C38.0799 51.9707 38.5126 52.0439 38.9537 52.0438C39.1015 52.0438 39.2504 52.0356 39.3997 52.0191C40.4497 51.9025 41.3886 51.3862 42.041 50.568C42.6936 49.7549 42.9912 48.7353 42.8812 47.6946C43.876 47.5785 44.8281 47.0875 45.5035 46.246C46.1762 45.4049 46.4462 44.3694 46.3405 43.3736C47.3806 43.2524 48.3108 42.739 48.9602 41.927C49.6171 41.1084 49.9149 40.08 49.7985 39.0312C49.7102 38.235 49.3912 37.5028 48.8842 36.9099C49.4008 36.2246 50.1595 35.6448 51.0655 35.2465L51.3979 35.8346C51.9318 36.7775 52.9253 37.3091 53.948 37.3091C54.4296 37.309 54.9178 37.1911 55.3672 36.9427L58.5053 35.2043C59.1836 34.8293 59.6744 34.2087 59.8873 33.4569C60.102 32.6993 60.0082 31.9062 59.6223 31.2224ZM6.56174 34.6799C6.40939 34.949 6.04529 35.046 5.76767 34.8924L2.62787 33.1533C2.45642 33.0584 2.39103 32.903 2.36713 32.8187C2.34263 32.7314 2.3165 32.5581 2.41986 32.3765L11.4686 16.3745C11.5722 16.1909 11.7674 16.088 11.9702 16.088C12.0688 16.088 12.1692 16.1123 12.2617 16.1635L15.4007 17.9023C15.4011 17.9025 15.4014 17.9028 15.4018 17.9029C15.5736 17.9979 15.6388 18.1527 15.6625 18.2365C15.6869 18.3231 15.7127 18.4951 15.6097 18.6766L6.56174 34.6799ZM15.1134 40.7104C14.7829 40.9751 14.3656 41.0948 13.9392 41.0473C13.5125 41 13.1322 40.7921 12.8681 40.4618C12.6033 40.1308 12.484 39.7136 12.532 39.2873C12.5797 38.8627 12.7877 38.4843 13.1198 38.22L17.507 34.7131C18.1956 34.1634 19.2036 34.2764 19.7539 34.9637C20.0185 35.2946 20.1379 35.711 20.0901 36.1361C20.0425 36.5597 19.8344 36.9378 19.5042 37.2005C19.4969 37.2062 19.4907 37.2127 19.4837 37.2187L15.1144 40.7096C15.1141 40.7098 15.1137 40.7101 15.1134 40.7104ZM16.3279 44.7808C16.0634 44.4511 15.9439 44.0357 15.9911 43.611C16.0383 43.186 16.2466 42.8058 16.5773 42.5406L16.5776 42.5404C16.5779 42.5403 16.5781 42.54 16.5783 42.5399C16.5785 42.5399 16.5785 42.5398 16.5786 42.5397L22.898 37.4908C23.5865 36.9409 24.5947 37.0532 25.1449 37.7414C25.4091 38.0718 25.5285 38.4878 25.4813 38.9127C25.434 39.3381 25.2251 39.7183 24.8936 39.9831L18.5758 45.0301C17.8865 45.5802 16.8787 45.4692 16.3279 44.7808ZM20.8581 49.6898C20.4316 49.6424 20.0517 49.4343 19.7872 49.1026C19.5229 48.7723 19.4035 48.3563 19.4507 47.9314C19.4981 47.5063 19.7065 47.1265 20.0376 46.8617C20.0378 46.8614 20.0382 46.8612 20.0384 46.861L24.4116 43.3674C24.4168 43.3634 24.4224 43.36 24.4276 43.3559C25.1143 42.8062 26.1221 42.9181 26.6729 43.6046C26.9376 43.9355 27.057 44.3527 27.0091 44.779C26.9613 45.2036 26.7533 45.582 26.4213 45.8462L22.0341 49.3531C21.7026 49.6178 21.2848 49.7369 20.8581 49.6898ZM28.536 50.6411C28.4886 51.0661 28.2803 51.4455 27.9487 51.7103L25.4949 53.674C24.8055 54.2242 23.7977 54.1135 23.2471 53.4249C22.9826 53.0955 22.863 52.6797 22.9102 52.2542C22.9574 51.8287 23.1654 51.4491 23.4956 51.1854C23.4959 51.1852 23.4964 51.1848 23.4967 51.1846L25.9499 49.2236C25.9512 49.2225 25.9526 49.2217 25.9539 49.2208C26.6426 48.6712 27.6506 48.7838 28.2009 49.4714C28.4644 49.8012 28.5836 50.2164 28.536 50.6411ZM47.1311 40.4617C46.867 40.7919 46.4866 41 46.06 41.0473C45.6338 41.0952 45.2163 40.9752 44.8858 40.7104C44.8857 40.7103 44.8855 40.7101 44.8852 40.71C44.8851 40.7099 44.8849 40.7098 44.8848 40.7097L41.749 38.2043C41.2433 37.8003 40.5059 37.8828 40.1021 38.3883C39.6982 38.8939 39.7805 39.6313 40.2861 40.0353L43.4207 42.5398C44.1084 43.0905 44.2217 44.0964 43.6744 44.7807C43.1222 45.4688 42.1143 45.5807 41.4262 45.0296L38.0248 42.3153C37.519 41.9117 36.7817 41.9945 36.378 42.5003C35.9744 43.0061 36.0571 43.7434 36.563 44.1471L39.9628 46.8601C40.294 47.1255 40.5025 47.5059 40.5499 47.9314C40.5971 48.356 40.4776 48.7716 40.2108 49.1038C39.9473 49.4343 39.5674 49.6423 39.1409 49.6898C38.714 49.7367 38.2962 49.6176 37.966 49.354L36.2736 48.0005C36.2706 47.9982 36.2681 47.9957 36.2651 47.9934L34.8352 46.8502L34.5679 46.6364C34.0622 46.2321 33.3249 46.3143 32.9208 46.8196C32.8703 46.8829 32.8273 46.9497 32.7919 47.0191C32.6222 47.3507 32.6251 47.7396 32.7843 48.0658C32.858 48.2168 32.9642 48.3548 33.1041 48.4667L34.8058 49.8276C35.4889 50.3792 35.6006 51.3817 35.0537 52.0655C34.5032 52.7535 33.4952 52.8659 32.8069 52.3169L30.8763 50.7744C30.9567 49.7714 30.6595 48.7933 30.0309 48.0073C29.6402 47.519 29.1556 47.1491 28.6235 46.901C29.0135 46.36 29.2611 45.7244 29.3379 45.0409C29.4561 43.9914 29.1596 42.9616 28.5019 42.1392C28.1111 41.6522 27.6271 41.2832 27.096 41.0357C27.4867 40.493 27.7344 39.8561 27.8105 39.1717C27.9271 38.1245 27.6304 37.0967 26.9751 36.2772C25.8475 34.8674 23.9406 34.4389 22.3536 35.1125C22.2265 34.5291 21.967 33.9788 21.5838 33.4996C20.227 31.8041 17.7424 31.5267 16.0442 32.8817L12.9064 35.3898C12.1968 34.4843 11.2322 33.7334 10.0918 33.1978L16.5463 21.7813L19.983 22.7771C19.9987 22.9609 20.0285 23.1543 20.0783 23.3591C20.9102 26.7796 24.0595 28.3733 28.2973 27.5194C31.868 26.8009 33.338 27.8712 36.2657 30.0032C36.5695 30.2243 36.8851 30.4541 37.2154 30.6907C39.3209 32.2013 41.5709 33.9768 43.0795 35.1802L46.8834 38.2203C47.2139 38.4839 47.4219 38.8636 47.4691 39.2895C47.5163 39.715 47.3968 40.1308 47.1311 40.4617ZM47.0947 35.3891L44.542 33.349C43.0126 32.129 40.7308 30.3286 38.581 28.7862C38.2552 28.5529 37.9446 28.3266 37.6455 28.1089C34.6096 25.8981 32.4155 24.3008 27.8349 25.2221C26.4329 25.5046 23.0926 25.835 22.3558 22.8059C22.252 22.3783 22.3574 22.2313 22.4023 22.1686C22.559 21.9502 23.1895 21.4185 25.6562 21.2001L30.8901 20.7317C31.743 20.6539 32.1708 20.6147 33.4726 21.0694L36.5391 22.1414C36.88 22.2605 37.1526 22.3636 37.3932 22.4548C38.8698 23.0141 39.261 23.014 41.2008 22.4526L43.4616 21.7975L49.9075 33.1985C48.7667 33.7337 47.8031 34.4841 47.0947 35.3891Z" fill="#929292"/>
<path d="M53.9731 24.7967C54.6203 24.7967 55.145 24.2703 55.145 23.623C55.145 22.9758 54.6203 22.4512 53.9731 22.4512C53.326 22.4512 52.8013 22.9759 52.8013 23.623V23.6263C52.8013 24.2736 53.326 24.7967 53.9731 24.7967Z" fill="#EC1E27"/>
</g>
<defs>
<clipPath id="clip0">
<rect width="60" height="60" fill="white"/>
</clipPath>
</defs>
</svg>
