<svg width="29" height="28" viewBox="0 0 29 28" fill="none" xmlns="http://www.w3.org/2000/svg">
<g clip-path="url(#clip0)">
<path d="M21.3529 0H8.397C4.18038 0 0.75 3.40002 0.75 7.57933V20.4208C0.75 24.5999 4.18038 27.9999 8.397 27.9999H21.3532C25.5696 27.9999 28.9999 24.5999 28.9999 20.4208V7.57933C28.9999 3.40002 25.5696 0 21.3529 0V0ZM27.3438 20.4208C27.3438 23.6948 24.6564 26.3585 21.3529 26.3585H8.397C5.09358 26.3585 2.40613 23.6948 2.40613 20.4208V7.57933C2.40613 4.30514 5.09358 1.64148 8.397 1.64148H21.3532C24.6564 1.64148 27.3438 4.30514 27.3438 7.57933V20.4208Z" fill="black"/>
<path d="M14.875 6.34396C10.6157 6.34396 7.15063 9.77837 7.15063 14C7.15063 18.2216 10.6157 21.656 14.875 21.656C19.1343 21.656 22.5994 18.2216 22.5994 14C22.5994 9.77837 19.1343 6.34396 14.875 6.34396ZM14.875 20.0145C11.5291 20.0145 8.80677 17.3165 8.80677 14C8.80677 10.6837 11.5291 7.98544 14.875 7.98544C18.2211 7.98544 20.9433 10.6837 20.9433 14C20.9433 17.3165 18.2211 20.0145 14.875 20.0145Z" fill="black"/>
<path d="M22.7842 3.62497C21.5255 3.62497 20.5017 4.63989 20.5017 5.88723C20.5017 7.13479 21.5255 8.14971 22.7842 8.14971C24.0429 8.14971 25.0668 7.13479 25.0668 5.88723C25.0668 4.63968 24.0429 3.62497 22.7842 3.62497ZM22.7842 6.50802C22.4389 6.50802 22.1578 6.22946 22.1578 5.88723C22.1578 5.5448 22.4389 5.26645 22.7842 5.26645C23.1297 5.26645 23.4107 5.5448 23.4107 5.88723C23.4107 6.22946 23.1297 6.50802 22.7842 6.50802Z" fill="black"/>
</g>
<defs>
<clipPath id="clip0">
<rect width="28.25" height="28" fill="white" transform="translate(0.75)"/>
</clipPath>
</defs>
</svg>
