<svg width="60" height="60" viewBox="0 0 60 60" fill="none" xmlns="http://www.w3.org/2000/svg">
<g clip-path="url(#clip0)">
<path d="M56.0755 10.3854C47.3079 8.1121 38.4888 4.57234 30.5717 0.148755C30.2166 -0.0495263 29.7839 -0.0496435 29.4285 0.148755C21.2838 4.69914 12.9413 8.04753 3.92461 10.3855C3.40781 10.5196 3.04688 10.986 3.04688 11.5199V24.4567C3.04688 37.7615 9.52639 46.5628 14.9622 51.6031C20.7931 57.0099 27.5552 60.0002 30.0002 60.0002C32.4452 60.0002 39.2072 57.0099 45.0381 51.6031C50.4737 46.5628 56.9535 37.7617 56.9535 24.4567V11.5198C56.9534 10.9859 56.5924 10.5195 56.0755 10.3854ZM43.4445 49.8841C40.2152 52.8786 37.077 54.769 35.0129 55.8276C32.3974 57.169 30.582 57.6561 30.0001 57.6561C29.4181 57.6561 27.6029 57.1692 24.9873 55.8276C22.9234 54.769 19.7851 52.8786 16.5556 49.8841C11.4622 45.1611 5.3905 36.9158 5.3905 24.4564V12.4228C14.0581 10.1025 22.125 6.85374 30.0002 2.51184C37.6757 6.73749 46.1518 10.1507 54.6095 12.4225V24.4564H54.6096C54.6095 36.9158 48.5379 45.1611 43.4445 49.8841Z" fill="#929292"/>
<path d="M52.0069 13.5196C44.5847 11.3619 37.366 8.43091 30.5514 4.8083C30.2071 4.62513 29.7943 4.62548 29.4502 4.809C22.6252 8.44673 15.4066 11.3782 7.99452 13.5219C7.49331 13.6668 7.14819 14.1257 7.14819 14.6476V24.4564C7.14819 29.0357 8.01596 33.3815 9.72725 37.373C11.43 41.3446 13.9695 44.9691 17.2752 48.1464C19.6394 50.4186 22.3692 52.421 25.1697 53.937C25.6715 54.2086 28.2523 55.5779 29.7871 55.8613C29.8575 55.8742 29.9286 55.8807 29.9998 55.8807C30.0711 55.8807 30.1422 55.8742 30.2125 55.8613C31.7473 55.5779 34.3281 54.2086 34.8299 53.937C37.6301 52.421 40.36 50.4186 42.7245 48.1464C46.0301 44.9693 48.5696 41.3447 50.2724 37.373C51.9837 33.3816 52.8515 29.0358 52.8515 24.4564V14.645C52.8516 14.1239 52.5073 13.6653 52.0069 13.5196ZM50.5078 24.4564C50.5078 33.0551 47.3429 40.4569 41.1005 46.4564C38.8859 48.5848 36.3318 50.4587 33.7143 51.8757C32.5229 52.5206 30.9145 53.2725 29.9998 53.5086C29.0852 53.2725 27.4768 52.5206 26.2855 51.8757C23.6679 50.4586 21.1138 48.5847 18.8993 46.4564C12.6571 40.457 9.49194 33.055 9.49194 24.4564V15.525C16.5647 13.4192 23.4574 10.6112 30.0019 7.1688C36.536 10.5966 43.428 13.4036 50.5077 15.5212V24.4564H50.5078Z" fill="#929292"/>
<path d="M20.2766 41.9888L20.2532 41.9637C19.8195 41.4885 19.0828 41.4519 18.604 41.8829C18.123 42.3158 18.0839 43.0568 18.5168 43.5378L18.5403 43.563C18.7712 43.8159 19.0879 43.9446 19.4059 43.9446C19.6852 43.9446 19.9655 43.8452 20.1894 43.6438C20.6705 43.2109 20.7095 42.4698 20.2766 41.9888Z" fill="#EC1E27"/>
<path d="M26.5971 47.3078C25.1855 46.417 23.8262 45.3902 22.5573 44.2558C22.0748 43.8243 21.334 43.8659 20.9026 44.3484C20.4714 44.831 20.5129 45.5717 20.9954 46.0031C22.361 47.2239 23.8249 48.3297 25.3465 49.2899C25.5407 49.4124 25.7569 49.4709 25.9707 49.4709C26.3596 49.4709 26.74 49.2775 26.9628 48.9243C27.3083 48.3769 27.1446 47.6532 26.5971 47.3078Z" fill="#EC1E27"/>
<path d="M36.1988 24.501V20.6431C36.1988 17.2249 33.418 14.4441 29.9996 14.4441C26.5815 14.4441 23.8007 17.2249 23.8007 20.6431V24.501C22.4064 24.5513 21.2874 25.7004 21.2874 27.1068V36.1031C21.2872 37.5413 22.4574 38.7113 23.8956 38.7113H36.1042C37.5424 38.7113 38.7125 37.5413 38.7125 36.1031V27.1068C38.7125 25.7003 37.5934 24.551 36.1988 24.501ZM26.1443 20.6431C26.1443 18.5173 27.8739 16.7878 29.9998 16.7878C32.1255 16.7878 33.855 18.5173 33.855 20.6431V24.4985H26.1442V20.6431H26.1443ZM36.3687 36.1032C36.3687 36.2467 36.2475 36.3677 36.104 36.3677H23.8954C23.7519 36.3677 23.6307 36.2467 23.6307 36.1032V27.1069H23.6309C23.6309 26.9634 23.752 26.8424 23.8955 26.8424H24.9723H35.0269H36.104C36.2475 26.8424 36.3687 26.9634 36.3687 27.1069V36.1032Z" fill="#EC1E27"/>
<path d="M30.0001 29.2546C29.0976 29.2546 28.3616 29.9907 28.3616 30.8932C28.3616 31.3368 28.54 31.7398 28.8282 32.0353V33.1822C28.8282 33.8293 29.3529 34.354 30.0001 34.354C30.6473 34.354 31.172 33.8293 31.172 33.1822V32.0353C31.4601 31.7397 31.6386 31.3368 31.6386 30.8932C31.6386 29.9907 30.9025 29.2546 30.0001 29.2546Z" fill="#9F9F9F"/>
</g>
<defs>
<clipPath id="clip0">
<rect width="60" height="60" fill="white"/>
</clipPath>
</defs>
</svg>
