<svg width="142" height="142" viewBox="0 0 142 142" fill="none" xmlns="http://www.w3.org/2000/svg">
<g clip-path="url(#clip0)">
<line x1="45.5" y1="58.5" x2="96.5" y2="58.5" stroke="#EE4540" stroke-width="5" stroke-linecap="round"/>
<line x1="12.5" y1="139.5" x2="74.5" y2="139.5" stroke="#EE4540" stroke-width="5" stroke-linecap="round"/>
<line x1="100.5" y1="139.5" x2="130.5" y2="139.5" stroke="#EE4540" stroke-width="5" stroke-linecap="round"/>
<path d="M131.061 142C129.762 142 128.532 141.226 128.014 139.948L126.401 135.974C120.889 122.393 114.404 116.599 104.716 116.599H92.3904C88.6505 116.599 85.4344 117.468 82.5576 119.257C81.0161 120.216 78.9894 119.742 78.0309 118.201C77.0724 116.659 77.5453 114.632 79.0868 113.674C82.9812 111.253 87.457 110.025 92.3896 110.025H104.715C121.071 110.025 128.401 123.424 132.492 133.502L134.104 137.477C134.787 139.159 133.976 141.076 132.295 141.758C131.89 141.922 131.472 142 131.061 142ZM75.9553 142C74.6566 142 73.427 141.226 72.9085 139.948L71.2959 135.974C65.7844 122.393 59.2992 116.599 49.6106 116.599H37.2848C27.5962 116.599 21.1106 122.394 15.5991 135.974L13.9865 139.948C13.3037 141.631 11.3867 142.439 9.7051 141.758C8.02309 141.076 7.21291 139.159 7.89532 137.477L9.50789 133.502C13.5983 123.424 20.9278 110.025 37.2848 110.025H49.6102C65.9681 110.025 73.2975 123.423 77.3875 133.502L79.0001 137.477C79.6825 139.159 78.8719 141.076 77.1903 141.758C76.7852 141.922 76.3666 142 75.9553 142ZM98.5515 103.691C88.3773 103.691 80.1003 95.4137 80.1003 85.2391C80.1003 76.8624 85.7109 69.7716 93.3715 67.5275C93.4126 67.514 93.4537 67.5016 93.4956 67.4893C95.1357 67.023 96.837 66.7868 98.5519 66.7868C107.96 66.7868 115.773 73.7469 116.874 83.039C116.96 83.7609 117.004 84.4947 117.004 85.2391C117.004 95.4133 108.726 103.691 98.5515 103.691ZM92.0728 75.2872C88.8251 77.4092 86.6739 81.0781 86.6739 85.2391C86.6739 91.7888 92.0022 97.1175 98.5515 97.1175C104.301 97.1175 109.109 93.0123 110.199 87.5793C109.961 87.5883 109.723 87.5929 109.484 87.5929C101.465 87.5929 94.6053 82.5349 92.0728 75.2872ZM98.3703 73.3615C100.071 77.8854 104.418 81.0193 109.484 81.0193C109.542 81.0193 109.599 81.0189 109.656 81.0181C107.929 76.4926 103.502 73.2962 98.3703 73.3615ZM43.4471 103.691C33.2729 103.691 24.9952 95.4137 24.9952 85.2391C24.9952 75.0863 33.2376 66.8225 43.3822 66.7872C43.4286 66.7868 43.4754 66.7868 43.5219 66.7868C53.0535 66.7868 60.9471 73.9314 61.883 83.4059C61.9085 83.6672 61.9031 83.9256 61.8686 84.1767C61.8888 84.5279 61.899 84.8829 61.899 85.2391C61.899 95.4133 53.6213 103.691 43.4471 103.691ZM37.0289 75.2477C33.7466 77.3632 31.5687 81.0518 31.5687 85.2387C31.5687 91.7884 36.8974 97.1171 43.4471 97.1171C49.1948 97.1171 54.0026 93.0131 55.0934 87.5818C54.8805 87.5892 54.6673 87.5924 54.4541 87.5924C46.4204 87.5928 39.5502 82.5164 37.0289 75.2477ZM43.3399 73.3615C45.0408 77.8854 49.3879 81.0197 54.4541 81.0197C54.4865 81.0197 54.519 81.0197 54.551 81.0193C52.8456 76.5468 48.5112 73.3607 43.4471 73.3607C43.4114 73.3611 43.3756 73.3607 43.3399 73.3615ZM96.6907 61.023C95.6271 61.023 94.5839 60.5078 93.9508 59.5563C89.5289 52.908 84.1948 49.8118 77.164 49.8118H64.8374C57.8062 49.8118 52.4717 52.908 48.0498 59.5563C47.0441 61.0678 45.0034 61.4778 43.4927 60.4725C41.9812 59.4671 41.5712 57.4269 42.5765 55.9154C48.1718 47.5033 55.6616 43.2383 64.8374 43.2383H77.1624C86.3395 43.2383 93.8288 47.5037 99.4245 55.9154C100.43 57.4269 100.019 59.4671 98.5083 60.4725C97.9483 60.8451 97.3156 61.023 96.6907 61.023ZM70.9997 36.9043C60.8259 36.9043 52.5486 28.627 52.5486 18.4523C52.5486 8.27732 60.8259 0 70.9997 0C71.0247 0 71.0498 0 71.0745 0C80.6057 0 88.4997 7.14462 89.436 16.6187C89.4619 16.8804 89.4561 17.1389 89.422 17.3899C89.4422 17.7412 89.452 18.0961 89.452 18.4523C89.452 28.627 81.1743 36.9043 70.9997 36.9043ZM64.5819 8.46097C61.3 10.5768 59.1221 14.2654 59.1221 18.4523C59.1221 25.0021 64.4504 30.3307 70.9997 30.3307C76.7482 30.3307 81.556 26.2268 82.6468 20.795C82.4335 20.8024 82.2203 20.8057 82.0063 20.8057C73.973 20.8061 67.1028 15.7293 64.5819 8.46097ZM70.8929 6.57477C72.5934 11.0986 76.9401 14.2325 82.0059 14.2325C82.0383 14.2325 82.0712 14.2325 82.1036 14.2321C80.4023 9.76993 76.0856 6.58915 71.0371 6.57354C70.989 6.57395 70.9409 6.57436 70.8929 6.57477Z" fill="#929292"/>
</g>
<defs>
<clipPath id="clip0">
<rect width="142" height="142" fill="white"/>
</clipPath>
</defs>
</svg>
