<svg width="142" height="142" viewBox="0 0 142 142" fill="none" xmlns="http://www.w3.org/2000/svg">
<g clip-path="url(#clip0)">
<path d="M24.975 109.814C22.987 109.814 21.076 110.31 19.3805 111.242C10.4491 99.7928 5.54688 85.5703 5.54688 71C5.54688 34.9085 34.9085 5.54688 71 5.54688C75.3877 5.54688 79.7732 5.98347 84.0352 6.84476C85.5345 7.1481 86.9993 6.1774 87.3026 4.67584C87.606 3.17429 86.6353 1.71173 85.1337 1.4073C80.5109 0.473434 75.756 0 71 0C52.0355 0 34.2054 7.38536 20.7954 20.7954C7.38536 34.2054 0 52.0355 0 71C0 86.9527 5.41687 102.521 15.2788 115.001C14.0091 116.898 13.3266 119.128 13.3266 121.462C13.3266 124.574 14.5389 127.499 16.7392 129.698C18.9385 131.899 21.8636 133.111 24.975 133.111C28.0865 133.111 31.0116 131.899 33.2119 129.698C35.4122 127.499 36.6235 124.573 36.6235 121.461C36.6235 118.351 35.4122 115.425 33.2119 113.226C31.0116 111.025 28.0865 109.814 24.975 109.814ZM29.289 125.776C28.1374 126.929 26.6044 127.564 24.975 127.564C23.3456 127.564 21.8137 126.929 20.661 125.776C19.5083 124.624 18.8735 123.092 18.8735 121.462C18.8735 119.832 19.5083 118.3 20.661 117.147C21.8127 115.995 23.3456 115.361 24.975 115.361C26.6044 115.361 28.1363 115.996 29.289 117.147C30.4417 118.3 31.0766 119.832 31.0766 121.462C31.0766 123.092 30.4417 124.624 29.289 125.776Z" fill="#929292"/>
<path d="M126.719 26.9955C129.734 22.4724 129.25 16.2885 125.262 12.3006C123.062 10.1013 120.136 8.88904 117.025 8.88904C113.914 8.88904 110.988 10.1013 108.788 12.3006C106.588 14.5009 105.377 17.426 105.377 20.5375C105.377 23.6489 106.588 26.574 108.788 28.7744C110.988 30.9747 113.914 32.1859 117.025 32.1859C119.013 32.1859 120.924 31.6897 122.62 30.758C131.551 42.2082 136.453 56.4297 136.453 71C136.453 107.091 107.092 136.453 71.0001 136.453C66.6557 136.453 62.3114 136.025 58.0895 135.18C56.5879 134.88 55.1265 135.854 54.8253 137.356C54.5252 138.858 55.4992 140.319 57.0007 140.62C61.5801 141.535 66.2906 142 71.0001 142C89.9645 142 107.795 134.615 121.205 121.205C134.615 107.795 142 89.9644 142 71C142 55.0462 136.582 39.477 126.719 26.9955ZM112.711 24.8526C111.558 23.6998 110.923 22.168 110.923 20.5375C110.923 18.9081 111.558 17.3762 112.711 16.2235C113.863 15.0708 115.396 14.4359 117.025 14.4359C118.654 14.4359 120.187 15.0708 121.34 16.2235C123.718 18.6026 123.718 22.4735 121.34 24.8526C120.187 26.0042 118.654 26.639 117.025 26.639C115.395 26.639 113.863 26.0042 112.711 24.8526Z" fill="#929292"/>
<path d="M59.5552 118.703C59.5552 120.235 60.7978 121.477 62.3286 121.477H79.6702C81.2021 121.477 82.4436 120.235 82.4436 118.703V113.326C86.0903 112.345 89.5766 110.9 92.8527 109.012L96.6488 112.808C97.1688 113.329 97.8741 113.621 98.6108 113.621C99.3453 113.621 100.052 113.329 100.572 112.807L112.829 100.541C113.911 99.4581 113.911 97.7019 112.829 96.6196L109.037 92.8278C110.924 89.5517 112.37 86.0654 113.351 82.4188H118.707C120.239 82.4188 121.481 81.1772 121.481 79.6453V62.3038C121.481 60.7719 120.239 59.5303 118.707 59.5303H113.35C112.369 55.8848 110.924 52.3985 109.037 49.1223L112.808 45.3511C113.328 44.8311 113.621 44.1247 113.621 43.3891C113.62 42.6535 113.327 41.9472 112.807 41.4271L100.54 29.1698C99.458 28.0876 97.7019 28.0876 96.6185 29.1709L92.8527 32.9378C89.5766 31.0506 86.0903 29.6054 82.4436 28.6238V23.2969C82.4436 21.765 81.2021 20.5234 79.6702 20.5234H62.3286C60.7978 20.5234 59.5552 21.765 59.5552 23.2969V28.6249C55.9096 29.6054 52.4233 31.0506 49.1472 32.9378L45.3803 29.1709C44.298 28.0886 42.5419 28.0876 41.4585 29.1698L29.1925 41.4282C28.6714 41.9482 28.3789 42.6535 28.3789 43.3891C28.3789 44.1247 28.6714 44.8311 29.1915 45.3511L32.9627 49.1223C31.0754 52.3985 29.6302 55.8837 28.6487 59.5303H23.3022C21.7703 59.5303 20.5288 60.7719 20.5288 62.3027L20.519 79.6442C20.518 80.3799 20.8105 81.0862 21.3305 81.6062C21.8505 82.1263 22.5558 82.4188 23.2925 82.4188H28.6487C29.6302 86.0654 31.0754 89.5517 32.9627 92.8278L29.1709 96.6196C28.0886 97.7019 28.0875 99.4581 29.1709 100.541L41.4282 112.807C41.9482 113.327 42.6535 113.621 43.3891 113.621H43.3902C44.1258 113.621 44.831 113.329 45.3511 112.808L49.1461 109.012C52.4233 110.9 55.9096 112.345 59.5552 113.326V118.703ZM50.2338 103.179C49.1364 102.47 47.6922 102.624 46.767 103.548L43.3902 106.925L35.0536 98.5816L38.4272 95.2069C39.3513 94.2828 39.5052 92.8387 38.7956 91.7412C36.2811 87.8497 34.513 83.5845 33.5423 79.0625C33.2671 77.7852 32.1382 76.8719 30.8306 76.8719H26.067L26.0735 65.0772H30.8306C32.1382 65.0772 33.2671 64.165 33.5423 62.8866C34.513 58.3657 36.2811 54.1004 38.7956 50.209C39.5052 49.1115 39.3513 47.6674 38.4272 46.7433L35.0753 43.3902L43.4183 35.0536L46.767 38.4034C47.6922 39.3276 49.1353 39.4803 50.2338 38.7718C54.1242 36.2573 58.3895 34.4892 62.9115 33.5185C64.1888 33.2433 65.1021 32.1134 65.1021 30.8068V26.0703H76.8967V30.8057C76.8967 32.1134 77.8089 33.2433 79.0873 33.5174C83.6082 34.4892 87.8746 36.2562 91.765 38.7707C92.8624 39.4803 94.3066 39.3276 95.2307 38.4024L98.5805 35.0536L106.924 43.3902L103.572 46.7422C102.646 47.6674 102.494 49.1115 103.203 50.209C105.718 54.1004 107.485 58.3657 108.457 62.8866C108.731 64.165 109.861 65.0772 111.168 65.0772H115.934V76.8719H111.168C109.861 76.8719 108.732 77.7852 108.457 79.0625C107.486 83.5834 105.718 87.8497 103.203 91.7401C102.494 92.8387 102.647 94.2828 103.572 95.2069L106.945 98.5805L98.6086 106.924L95.2318 103.548C94.3066 102.623 92.8624 102.47 91.765 103.179C87.8735 105.694 83.6082 107.461 79.0873 108.433C77.8089 108.708 76.8967 109.837 76.8967 111.144V115.93H65.1021V111.144C65.1021 109.838 64.1888 108.708 62.9115 108.433C58.3906 107.462 54.1253 105.694 50.2338 103.179Z" fill="#EE4540"/>
<path d="M93.9167 71C93.9167 58.3635 83.6366 48.0834 71.0001 48.0834C58.3636 48.0834 48.0835 58.3635 48.0835 71C48.0835 83.6365 58.3636 93.9166 71.0001 93.9166C83.6366 93.9166 93.9167 83.6365 93.9167 71ZM53.6304 71C53.6304 61.4219 61.422 53.6302 71.0001 53.6302C80.5782 53.6302 88.3698 61.423 88.3698 71C88.3698 80.577 80.5782 88.3697 71.0001 88.3697C61.422 88.3697 53.6304 80.5781 53.6304 71Z" fill="#929292"/>
</g>
<defs>
<clipPath id="clip0">
<rect width="142" height="142" fill="white"/>
</clipPath>
</defs>
</svg>
