<svg width="29" height="28" viewBox="0 0 29 28" fill="none" xmlns="http://www.w3.org/2000/svg">
<g clip-path="url(#clip0)">
<path d="M27.8138 2.78137C27.4687 2.3631 26.9519 2.13281 26.3583 2.13281C26.0357 2.13281 25.6939 2.2001 25.3425 2.33319L1.42944 11.3808C0.160399 11.8608 -0.0105166 12.5811 0.000475399 12.9678C0.0114674 13.3544 0.223334 14.0641 1.51781 14.4723C1.52557 14.4747 1.53333 14.477 1.54109 14.4792L6.5013 15.8861L9.18379 23.4889C9.54955 24.5254 10.3705 25.1693 11.3266 25.1693C11.9294 25.1693 12.5224 24.9189 13.0414 24.4455L16.1094 21.6456L20.5595 25.197C20.5599 25.1975 20.5606 25.1977 20.561 25.1981L20.6032 25.2319C20.6071 25.2349 20.6112 25.2381 20.6151 25.2411C21.1097 25.6213 21.6496 25.8221 22.177 25.8223H22.1773C23.2077 25.8223 24.0282 25.0663 24.2673 23.8965L28.1854 4.72086C28.3427 3.95117 28.2108 3.26245 27.8138 2.78137ZM8.16067 15.6188L17.7304 10.7732L11.7717 17.0488C11.674 17.1516 11.6048 17.2774 11.5708 17.4143L10.4218 22.0273L8.16067 15.6188ZM11.92 23.2386C11.8803 23.2747 11.8404 23.3069 11.8005 23.3366L12.8666 19.0573L14.8057 20.605L11.92 23.2386ZM26.5631 4.39508L22.645 23.5709C22.6072 23.7545 22.4868 24.1815 22.177 24.1815C22.024 24.1815 21.8318 24.0988 21.635 23.9486L16.5924 19.9244C16.5918 19.9238 16.5909 19.9231 16.5901 19.9227L13.5897 17.528L22.2068 8.45264C22.4827 8.16211 22.5077 7.71713 22.2661 7.39798C22.0242 7.07883 21.5861 6.97842 21.2276 7.16L7.05478 14.3365L2.02711 12.9107L25.9329 3.86594C26.1348 3.78946 26.2758 3.77344 26.3583 3.77344C26.409 3.77344 26.4991 3.77942 26.5325 3.82022C26.5764 3.87341 26.6325 4.05478 26.5631 4.39508Z" fill="black"/>
</g>
<defs>
<clipPath id="clip0">
<rect width="28.25" height="28" fill="white"/>
</clipPath>
</defs>
</svg>
