<svg width="29" height="28" viewBox="0 0 29 28" fill="none" xmlns="http://www.w3.org/2000/svg">
<g clip-path="url(#clip0)">
<path d="M14.6707 22.75C18.7575 22.75 17.3003 20.1857 17.6157 19.4483C17.611 18.8977 17.6063 18.368 17.6252 18.046C17.8841 18.1183 18.495 18.4252 19.7569 19.6408C21.7049 21.5892 22.2028 22.75 23.7766 22.75H26.6734C27.5915 22.75 28.0694 22.3732 28.3084 22.057C28.5391 21.7513 28.7651 21.2147 28.5179 20.3793C27.8717 18.368 24.1026 14.8948 23.8684 14.5285C23.9037 14.4608 23.9602 14.371 23.9896 14.3243H23.9873C24.7312 13.3502 27.5703 9.13383 27.9882 7.44683C27.9894 7.4445 27.9906 7.441 27.9906 7.4375C28.2166 6.6675 28.0094 6.16817 27.7952 5.88583C27.4726 5.4635 26.9594 5.25 26.2661 5.25H23.3693C22.3994 5.25 21.6637 5.73417 21.2918 6.61733C20.6691 8.1865 18.9199 11.4135 17.6087 12.5557C17.5687 10.9375 17.5957 9.702 17.6169 8.78383C17.6593 6.993 17.7958 5.25 15.9207 5.25H11.3678C10.1931 5.25 9.06894 6.52167 10.286 8.03133C11.3501 9.35433 10.6686 10.0917 10.8981 13.762C10.0035 12.8112 8.41212 10.2433 7.28683 6.9615C6.97137 6.07367 6.49348 5.25117 5.14807 5.25117H2.25127C1.07654 5.25117 0.375 5.88583 0.375 6.94867C0.375 9.33567 5.70601 22.75 14.6707 22.75ZM5.14807 7.00117C5.4035 7.00117 5.4294 7.00117 5.61891 7.53433C6.77127 10.8978 9.35615 15.8748 11.2442 15.8748C12.6626 15.8748 12.6626 14.434 12.6626 13.8915L12.6614 9.5725C12.5837 8.14333 12.0587 7.43167 11.7138 7L15.8431 7.00467C15.8454 7.0245 15.8195 11.7822 15.8548 12.9348C15.8548 14.5717 17.1661 15.5097 19.213 13.4563C21.373 11.0402 22.8667 7.42817 22.9267 7.28117C23.015 7.07117 23.0915 7 23.3693 7H26.2661H26.2779C26.2767 7.0035 26.2767 7.007 26.2755 7.0105C26.0107 8.2355 23.3964 12.1392 22.5218 13.3513C22.5077 13.37 22.4947 13.3898 22.4818 13.4097C22.0969 14.0327 21.7838 14.721 22.5348 15.6893H22.5359C22.6042 15.771 22.782 15.9623 23.0409 16.2283C23.846 17.052 26.6075 19.8683 26.8523 20.9883C26.6899 21.014 26.5133 20.9953 23.7766 21.0012C23.1939 21.0012 22.7384 20.1378 20.9999 18.3995C19.4367 16.8922 18.422 16.2762 17.498 16.2762C15.7042 16.2762 15.8348 17.7193 15.8513 19.4647C15.8572 21.357 15.8454 20.7585 15.8584 20.8775C15.7536 20.9183 15.4534 21 14.6707 21C7.20208 21 2.33837 9.2505 2.15122 7.00467C2.21596 6.99883 3.10701 7.00233 5.14807 7.00117Z" fill="black"/>
</g>
<defs>
<clipPath id="clip0">
<rect width="28.25" height="28" fill="white" transform="translate(0.375)"/>
</clipPath>
</defs>
</svg>
