<svg width="106" height="55" viewBox="0 0 106 55" fill="none" xmlns="http://www.w3.org/2000/svg">
<path d="M54.737 28.176H49.4323V25.8049H53.9389C54.2675 25.8049 54.5492 25.6654 54.737 25.4795C54.9248 25.2935 55.0656 25.0146 55.0656 24.6891C55.0656 24.4102 54.9248 24.1312 54.737 23.8987C54.5492 23.7128 54.2675 23.5733 53.9389 23.5733H49.4323V21.2487H54.5961C54.9248 21.2487 55.2064 21.1092 55.3942 20.9233C55.582 20.7373 55.7228 20.4583 55.7228 20.1329C55.7228 19.8075 55.582 19.5285 55.3942 19.3425C55.2064 19.1566 54.9248 19.0171 54.5961 19.0171H48.3056C47.977 19.0171 47.7423 19.1566 47.5076 19.3425C47.3198 19.5285 47.179 19.8075 47.179 20.1329V29.2918C47.179 29.6173 47.3198 29.8962 47.5076 30.0822C47.6953 30.2681 47.977 30.4076 48.3056 30.4076H54.737C55.0656 30.4076 55.3473 30.2681 55.535 30.0822C55.7228 29.8962 55.8636 29.6173 55.8636 29.2918C55.8636 28.9664 55.7228 28.6874 55.535 28.5014C55.3003 28.3155 55.0186 28.176 54.737 28.176Z" fill="white"/>
<path d="M66.3322 19.1082C66.1914 19.0617 66.0506 19.0152 65.9097 19.0152C65.4403 19.0152 65.0647 19.2942 64.877 19.7126L62.0603 26.4075L59.2437 19.6661C59.0559 19.2477 58.6334 19.0152 58.2109 18.9688C58.0701 18.9688 57.9292 19.0152 57.7884 19.0617C57.3659 19.2477 57.0842 19.6661 57.0842 20.0846C57.0842 20.224 57.1312 20.3635 57.1781 20.503L61.0275 29.7549C61.1214 29.9409 61.2623 30.1268 61.45 30.2663C61.6378 30.4058 61.8725 30.4523 62.0603 30.4523C62.5298 30.4523 62.9053 30.1733 63.0931 29.7549L66.9425 20.5495C66.9895 20.41 67.0364 20.2705 67.0364 20.131C66.9895 19.7126 66.7547 19.2942 66.3322 19.1082Z" fill="white"/>
<path d="M75.768 28.1741H70.4633V25.803H74.9699C75.2985 25.803 75.5332 25.6635 75.768 25.4775C75.9557 25.2916 76.0966 25.0126 76.0966 24.6872C76.0966 24.4082 75.9557 24.1293 75.768 23.8968C75.5802 23.7108 75.2985 23.5713 74.9699 23.5713H70.4633V21.2468H75.6271C75.9557 21.2468 76.2374 21.1073 76.4252 20.9213C76.613 20.7353 76.7538 20.4564 76.7538 20.1309C76.7538 19.8055 76.613 19.5265 76.4252 19.3406C76.2374 19.1546 75.9557 19.0151 75.6271 19.0151H69.3366C69.055 19.0151 68.7733 19.1546 68.5386 19.3406C68.3508 19.5265 68.21 19.8055 68.21 20.1309V29.2899C68.21 29.6153 68.3508 29.8943 68.5386 30.0802C68.7263 30.2662 69.008 30.4057 69.3366 30.4057H75.768C76.0966 30.4057 76.3782 30.2662 76.566 30.0802C76.7538 29.8943 76.8946 29.6153 76.8946 29.2899C76.8946 28.9644 76.8007 28.6855 76.566 28.4995C76.3782 28.3135 76.0966 28.1741 75.768 28.1741Z" fill="white"/>
<path d="M86.9407 19.1084C86.659 19.1084 86.3304 19.2479 86.1426 19.4338C85.9548 19.6198 85.814 19.8988 85.814 20.2242V26.2682L80.1338 19.5268C79.946 19.2479 79.6174 19.1549 79.2888 19.1549C79.1479 19.1549 79.0071 19.1549 78.9132 19.2014C78.4438 19.3409 78.1621 19.8058 78.1621 20.2242V29.3366C78.1621 29.6621 78.3029 29.941 78.4907 30.127C78.6785 30.313 78.9602 30.4524 79.2888 30.4524C79.5704 30.4524 79.899 30.313 80.0868 30.127C80.2746 29.941 80.4154 29.6621 80.4154 29.3366V23.2927L86.0957 30.0805C86.2835 30.313 86.6121 30.4524 86.9407 30.4524C87.0815 30.4524 87.1754 30.4059 87.3162 30.4059C87.504 30.313 87.6918 30.1735 87.8326 29.9875C87.9735 29.8015 88.0204 29.5691 88.0204 29.3366V20.2242C88.0204 19.8988 87.8796 19.6198 87.6918 19.4338C87.551 19.2479 87.2693 19.1084 86.9407 19.1084Z" fill="white"/>
<path d="M98.442 19.387C98.2542 19.201 97.9725 19.0615 97.6439 19.0615H90.4145C90.0859 19.0615 89.8042 19.1545 89.6165 19.387C89.4287 19.5729 89.2878 19.8519 89.2878 20.1773C89.2878 20.5028 89.4287 20.7817 89.6165 20.9677C89.8042 21.1537 90.0859 21.2931 90.4145 21.2931H92.9025V29.2898C92.9025 29.6152 93.0434 29.8941 93.2312 30.0801C93.4189 30.2661 93.7006 30.4056 94.0292 30.4056C94.3578 30.4056 94.5925 30.2661 94.8273 30.0801C95.015 29.8941 95.1559 29.6152 95.1559 29.2898V21.2931H97.6439C97.9725 21.2931 98.2542 21.1537 98.442 20.9677C98.6767 20.7817 98.7706 20.5028 98.7706 20.1773C98.7706 19.8984 98.6767 19.6194 98.442 19.387Z" fill="white"/>
<path d="M66.4262 32.963C66.2853 32.9165 66.1445 32.9165 66.0506 32.9165C65.722 32.9165 65.3934 33.056 65.2056 33.3349L59.4784 40.1228V34.0788C59.4784 33.7999 59.3845 33.4744 59.1498 33.2884C58.962 33.1025 58.6804 32.963 58.3518 32.963C58.0701 32.963 57.7884 33.1025 57.5537 33.2884C57.3659 33.4744 57.2251 33.7534 57.2251 34.0788V43.1912C57.2251 43.4237 57.319 43.6561 57.4129 43.8421C57.5537 44.0281 57.7415 44.1676 57.9293 44.2605C58.0701 44.307 58.164 44.307 58.3048 44.307C58.6334 44.307 58.962 44.1676 59.1498 43.9351L64.8301 37.1473V43.1912C64.8301 43.5167 64.9709 43.7956 65.1587 43.9816C65.3464 44.1676 65.6281 44.307 65.9567 44.307C66.2853 44.307 66.567 44.1676 66.7548 43.9816C66.9895 43.7956 67.0834 43.5167 67.0834 43.1912V34.0323C67.1773 33.5674 66.8956 33.149 66.4262 32.963Z" fill="white"/>
<path d="M54.2205 37.0539C53.3755 36.589 52.3427 36.403 51.1222 36.403C50.7936 36.403 50.5119 36.5425 50.3241 36.7285C50.1363 36.9144 49.9955 37.1934 49.9955 37.5188C49.9955 37.8443 50.1363 38.1232 50.3241 38.3092C50.5119 38.4952 50.7936 38.6346 51.1222 38.6346C52.0141 38.6346 52.7183 38.7741 53.0938 39.0066C53.3285 39.146 53.4694 39.2855 53.5633 39.4715C53.6572 39.6575 53.7041 39.8899 53.7041 40.2619C53.7041 40.7268 53.6102 41.0987 53.4694 41.3312C53.3755 41.5171 53.2347 41.6566 52.9999 41.7496C52.8122 41.8426 52.6244 41.9356 52.4835 41.9356C52.3897 41.9356 52.3427 41.9356 52.2958 41.9821H52.2488H49.3852V35.1012H54.5491C54.8777 35.1012 55.1594 34.9618 55.3471 34.7758C55.5349 34.5898 55.6758 34.3109 55.6758 33.9854C55.6758 33.66 55.5819 33.381 55.3471 33.1951C55.1594 33.0091 54.8777 32.8696 54.5491 32.8696H48.2586C48.1647 32.8696 48.1177 32.8696 48.0238 32.8696C47.7422 32.9161 47.5544 33.0556 47.3666 33.2416C47.2258 33.4275 47.085 33.66 47.085 33.9389V34.5898V43.0514C47.085 43.3768 47.2258 43.6558 47.4136 43.8417C47.6013 44.0277 47.883 44.1672 48.2116 44.1672H52.2019C52.2488 44.1672 52.3427 44.1672 52.5305 44.1672C52.6713 44.1672 52.906 44.1207 53.1408 44.0742C53.798 43.8882 54.4083 43.5628 54.8777 43.1444C55.2063 42.8189 55.488 42.4005 55.6758 41.9356C55.8635 41.4242 55.9574 40.8662 55.9574 40.2154C55.9574 39.518 55.8166 38.8671 55.488 38.3557C55.2533 37.8443 54.7838 37.3794 54.2205 37.0539Z" fill="white"/>
<path d="M76.9416 35.1481C76.7538 34.6832 76.4722 34.2648 76.1435 33.9393C75.6741 33.4744 75.1108 33.149 74.4066 33.0095C74.1719 32.963 73.9841 32.9165 73.7963 32.9165C73.6555 32.9165 73.5147 32.9165 73.4677 32.9165H69.4775C69.1958 32.9165 68.9142 33.056 68.6794 33.2419C68.4917 33.4279 68.3508 33.7069 68.3508 34.0323V43.1447C68.3508 43.4702 68.4917 43.7491 68.6794 43.9351C68.8672 44.1211 69.1489 44.2605 69.4775 44.2605C69.8061 44.2605 70.0408 44.1211 70.2755 43.9351C70.4633 43.7491 70.6041 43.4702 70.6041 43.1447V35.1016H73.4677C73.5147 35.1016 73.9372 35.1481 74.2658 35.3341C74.4536 35.4271 74.5944 35.5665 74.7352 35.7525C74.8761 35.985 74.9699 36.3569 74.9699 36.8218C74.9699 37.1473 74.923 37.4262 74.8291 37.6122C74.7352 37.7982 74.5944 37.9376 74.3597 38.0771C73.9372 38.3096 73.28 38.449 72.388 38.449C72.1064 38.449 71.8247 38.5885 71.59 38.7745C71.4022 38.9605 71.2614 39.2394 71.2614 39.5649C71.2614 39.8903 71.4022 40.1693 71.59 40.3552C71.7777 40.5412 72.0594 40.6807 72.388 40.6807C73.6555 40.6807 74.6883 40.4947 75.4863 40.0298C76.0497 39.7043 76.5191 39.2859 76.8008 38.728C77.0824 38.1701 77.2702 37.5657 77.2702 36.8683C77.2233 36.2639 77.1294 35.6595 76.9416 35.1481Z" fill="white"/>
<path d="M93.6068 42.8655C93.5129 42.3076 93.0435 41.9357 92.4802 41.9357C92.4332 41.9357 92.4332 41.9357 92.4332 41.9357C92.4332 41.9357 92.3863 41.9357 92.3393 41.8892C92.2924 41.8427 92.1985 41.7497 92.1046 41.5637C91.2127 40.076 89.8982 38.9602 88.9124 38.2628L92.6679 34.7294C92.9027 34.497 92.9965 34.218 92.9965 33.9391C92.9965 33.6601 92.9027 33.3811 92.6679 33.1952C92.4332 32.9627 92.1515 32.8697 91.8699 32.8697C91.5882 32.8697 91.3066 32.9627 91.1188 33.1952L86.4713 37.6119V33.9391C86.4713 33.6136 86.3774 33.3811 86.1427 33.1487C85.9549 32.9627 85.6732 32.8232 85.3446 32.8232C85.016 32.8232 84.7344 32.9627 84.5466 33.1487C84.3588 33.3347 84.218 33.6136 84.218 33.9391V37.5654L79.5705 33.1487C79.3358 32.9627 79.101 32.8232 78.8194 32.8232C78.5377 32.8232 78.2091 32.9627 78.0213 33.1487C77.8336 33.3811 77.6927 33.6601 77.6927 33.8926C77.6927 34.1715 77.8336 34.497 78.0683 34.6829L81.8238 38.2163C80.838 38.9137 79.5235 40.0295 78.6316 41.5172C78.4908 41.7497 78.3969 41.8427 78.3499 41.8892H78.303H78.2561C77.7397 41.8892 77.2702 42.2611 77.1294 42.819C77.1294 42.8655 77.1294 42.912 77.1294 43.005C77.1294 43.2839 77.2233 43.5164 77.4111 43.7024C77.5519 43.8883 77.7866 44.0278 78.0683 44.0743H78.1152H78.1622C78.1622 44.0743 78.2561 44.0743 78.3499 44.0743C78.5377 44.0743 78.8194 44.0278 79.1011 43.9348C79.5705 43.7953 80.1338 43.3769 80.6033 42.633C81.1666 41.7032 82.0585 40.8664 82.8096 40.3084C83.1852 40.0295 83.5138 39.797 83.7955 39.6111C83.9363 39.5181 84.0302 39.4716 84.1241 39.4251C84.171 39.4251 84.171 39.3786 84.218 39.3786C84.2649 39.3786 84.3119 39.3321 84.3119 39.2856V43.005C84.3119 43.3304 84.4527 43.6094 84.6405 43.7953C84.8282 43.9813 85.1099 44.1208 85.4385 44.1208C85.7671 44.1208 86.0488 43.9813 86.2366 43.7953C86.4243 43.6094 86.5652 43.3304 86.5652 43.005V39.2856C86.6121 39.3321 86.6121 39.3321 86.6591 39.3786C86.706 39.4251 87.3632 39.7505 88.1143 40.3084C88.8654 40.8664 89.7104 41.7032 90.2738 42.5866C90.7432 43.3769 91.3066 43.7489 91.776 43.8883C92.0577 43.9813 92.3393 44.0278 92.5271 44.0278C92.574 44.0278 92.6679 44.0278 92.6679 44.0278H92.7149H92.7618H92.8088C93.0904 43.9813 93.3252 43.8418 93.466 43.6559C93.6538 43.4699 93.7477 43.191 93.7477 42.9585C93.6068 42.9585 93.6068 42.912 93.6068 42.8655Z" fill="white"/>
<path d="M105.859 42.5864L101.352 33.474C101.165 33.1021 100.789 32.8696 100.367 32.8696C99.9441 32.8696 99.5686 33.1021 99.3808 33.474L94.9211 42.5864C94.8272 42.7259 94.7803 42.9119 94.7803 43.0979C94.7803 43.4233 94.9211 43.7487 95.2497 43.9812C95.4375 44.1207 95.7192 44.2137 95.9069 44.2137C96.1886 44.2137 96.4703 44.1207 96.705 43.8882C96.7989 43.7952 97.6908 43.0049 98.9114 42.354C99.6625 41.9356 100.414 41.7031 101.071 41.6101C101.399 41.5636 101.681 41.5171 101.963 41.5171C102.291 41.5171 102.573 41.5636 102.902 41.6101L103.841 43.5628C104.028 43.9347 104.404 44.1672 104.826 44.1672C104.967 44.1672 105.155 44.1207 105.296 44.0277C105.671 43.8417 105.906 43.4698 105.906 43.0514C106 42.9119 105.953 42.7724 105.859 42.5864ZM100.648 39.425C99.9911 39.5645 99.3339 39.7504 98.6297 40.0294L100.367 36.496L101.728 39.2855C101.399 39.332 101.024 39.3785 100.648 39.425Z" fill="white"/>
<path d="M18.0736 50.7226C18.0267 51.9314 17.0408 52.9542 15.8203 52.9542H15.1161C13.8486 52.9542 12.8628 51.9314 12.8628 50.7226V29.6152C13.0506 29.6617 13.1914 29.7547 13.3792 29.8012C13.8956 29.9407 14.4589 30.0337 15.0692 30.0337H17.2286C17.5103 30.0337 17.8389 29.9872 18.1205 29.9407V50.7226H18.0736Z" fill="white"/>
<path d="M16.6183 50.8623C16.2897 51.1413 15.9141 51.2808 15.4917 51.2808C15.0692 51.2808 14.6467 51.1413 14.365 50.8623C13.8017 50.4439 13.52 50.9088 13.8017 51.3737C14.1772 51.8852 14.7875 52.2571 15.4917 52.2571C16.1958 52.2571 16.8061 51.9316 17.1816 51.3737C17.4633 50.8623 17.1816 50.3974 16.6183 50.8623Z" fill="#1D191C"/>
<path d="M32.5793 30.4986C32.3446 29.8012 31.8282 29.2898 31.1709 29.0108L27.6501 27.6161C27.5093 27.5696 27.4154 27.4301 27.4624 27.2906L28.8707 21.2002C29.0585 20.5493 28.636 19.387 27.2746 19.7124L26.4765 19.9914L24.0354 20.7352H23.9885V20.6888L26.1949 19.201C26.3826 19.0615 26.4765 18.8756 26.4765 18.6431C26.5235 12.0877 25.3029 8.32189 18.8246 7.62451C18.8246 7.62451 17.9796 7.62451 17.1346 7.62451H16.2896H15.0221C13.2383 7.62451 11.6891 8.41488 10.5155 9.62367C9.3419 10.8325 8.59079 12.5062 8.44996 14.3658C8.44996 14.6448 8.44996 14.8773 8.44996 15.1097V20.1773L4.41275 21.1072C3.75554 21.2467 3.23915 21.7116 2.95748 22.316C2.8636 22.6414 2.81665 22.9204 2.81665 23.1993C2.81665 23.5713 2.91054 23.9432 3.09832 24.2686L4.92914 27.4301C4.97609 27.5231 4.97609 27.5696 4.92914 27.6625C4.92914 27.7555 4.83525 27.802 4.74136 27.8485L1.45527 29.1038C0.798051 29.3363 0.328609 29.8942 0.0938884 30.4986C0.0469442 30.731 0 31.01 0 31.2889C0 31.7074 0.0938884 32.0793 0.328609 32.4512L10.0461 49.6533C10.4216 50.3506 10.7502 51.0945 10.9849 51.8384C11.5013 53.6516 13.1444 54.9998 15.163 54.9998H15.8671C17.7919 54.9998 19.4349 53.7445 19.9982 51.9779C20.2799 51.0945 20.6554 50.2576 21.1718 49.5138L32.2976 32.5442C32.5793 32.1723 32.6732 31.7073 32.6732 31.2424C32.6732 31.01 32.6732 30.731 32.5793 30.4986ZM10.7502 46.7243L2.15943 31.4749C2.11249 31.4284 2.11249 31.3354 2.15943 31.2424C2.20638 31.1494 2.25332 31.103 2.34721 31.0565L5.91497 29.6152C5.96191 29.6152 5.96191 29.5687 6.00886 29.5687C6.61913 29.2898 7.27635 29.3828 7.79274 29.8477L9.57662 31.4284C9.57662 31.4284 9.6705 31.4749 9.6705 31.4284C9.6705 31.3819 9.71745 31.3819 9.6705 31.3354L6.94774 26.7327C6.94774 26.7327 6.94774 26.6862 6.9008 26.6862L5.06997 23.5713C5.02303 23.4783 5.02303 23.3853 5.06997 23.2923C5.11692 23.1993 5.16386 23.1528 5.25775 23.1063L8.40301 22.3625V22.5949C8.40301 24.8265 9.29495 26.8722 10.7033 28.2669V46.7243H10.7502ZM18.0735 50.7226C18.0266 51.9314 17.0407 52.9542 15.8202 52.9542H15.116C13.8485 52.9542 12.8627 51.9314 12.8627 50.7226V29.6152C13.0505 29.6617 13.1913 29.7547 13.3791 29.8012C13.8955 29.9407 14.4588 30.0336 15.0691 30.0336H17.2285C17.5102 30.0336 17.8388 29.9871 18.1205 29.9407V50.7226H18.0735ZM19.9513 21.944C18.8246 22.2695 18.0735 23.2923 18.0735 24.4081V27.895C17.7919 27.988 17.4632 28.0345 17.1816 28.0345H15.0221C14.6466 28.0345 14.271 27.988 13.8955 27.8485C12.0177 27.2906 10.5155 25.1985 10.5155 22.5949V20.9212H12.3463C12.8627 20.9212 13.2852 20.5028 13.2852 19.9914V19.8054C13.2852 19.294 12.8627 18.8756 12.3463 18.8756H10.5155V17.7133H12.3463C12.8627 17.7133 13.2852 17.2948 13.2852 16.7834V16.5975C13.2852 16.0861 12.8627 15.6676 12.3463 15.6676H10.5155V15.1562C10.5155 14.9238 10.5155 14.7378 10.5155 14.5518C10.5155 14.5518 10.5155 14.5518 10.5155 14.5053H12.3463C12.8627 14.5053 13.2852 14.0869 13.2852 13.5755V13.3895C13.2852 12.8781 12.8627 12.4597 12.3463 12.4597H11.1258C11.3605 11.9483 11.6891 11.4833 12.0647 11.0649C12.8627 10.2281 13.8955 9.71665 15.0221 9.71665H17.1816C18.3082 9.71665 19.341 10.2281 20.1391 11.0649C20.5146 11.4369 20.8432 11.9018 21.0779 12.4597H17.0407C16.5244 12.4597 16.1019 12.8781 16.1019 13.3895V13.5755C16.1019 14.0869 16.5244 14.5053 17.0407 14.5053H21.6882C21.6882 14.5053 21.6882 14.5053 21.6882 14.5518C21.6882 14.7378 21.6882 14.9238 21.6882 15.1562V15.6676H17.0407C16.5244 15.6676 16.1019 16.0861 16.1019 16.5975V16.7834C16.1019 17.2948 16.5244 17.7133 17.0407 17.7133H21.6882V18.8756H17.0407C16.5244 18.8756 16.1019 19.294 16.1019 19.8054V19.9914C16.1019 20.5028 16.5244 20.9212 17.0407 20.9212H21.6882V21.4326L19.9513 21.944ZM30.5137 31.4284L20.186 47.1892V27.5696V24.4546C20.186 24.2221 20.3268 24.0362 20.5616 23.9897L26.054 22.316C26.1479 22.2695 26.2418 22.316 26.2888 22.3625C26.3357 22.409 26.3826 22.5019 26.3826 22.5949L25.3499 27.1511L22.9088 31.3819C22.9088 31.4284 22.9088 31.4284 22.9088 31.4749C22.9557 31.4749 23.0027 31.4749 23.0027 31.4749L25.3029 29.6152C25.6315 29.3363 26.101 29.2898 26.5235 29.4292C26.5704 29.4292 26.5704 29.4757 26.6174 29.4757L30.3729 30.9635C30.4668 31.01 30.5137 31.0565 30.5607 31.1494C30.5607 31.2424 30.5607 31.3354 30.5137 31.4284Z" fill="#1D191C"/>
<path d="M17.3225 30.0803V50.1648C17.3225 52.7219 15.8203 52.9543 15.8203 52.9543C17.0409 52.9543 18.0736 51.978 18.0736 50.7227V29.9873C17.8389 30.0338 17.6042 30.0803 17.3225 30.0803Z" fill="#D9D9D9"/>
<path d="M10.7503 46.7246L2.15948 31.4752C2.11253 31.4287 2.11253 31.3357 2.15948 31.2428C2.20642 31.1498 2.25336 31.1033 2.34725 31.0568L5.91501 29.6155C5.96196 29.6155 5.96196 29.569 6.0089 29.569C6.61918 29.2901 7.27639 29.3831 7.79278 29.848L9.57666 31.4287C9.57666 31.4287 9.67055 31.4752 9.67055 31.4287C9.67055 31.3822 9.71749 31.3822 9.67055 31.3357L6.94778 26.733C6.94778 26.733 6.94778 26.6865 6.90084 26.6865L5.07002 23.5716C5.02307 23.4786 5.02307 23.3856 5.07002 23.2926C5.11696 23.1996 5.1639 23.1532 5.25779 23.1067L8.40305 22.3628V22.5953C8.40305 24.8269 9.29499 26.8725 10.7033 28.2673V46.7246H10.7503Z" fill="#EC1C24"/>
<path d="M3.19232 31.8001C3.14537 31.7071 3.14537 31.6606 3.19232 31.5676C3.23926 31.4746 3.28621 31.4281 3.33315 31.3816L6.90091 29.9404C6.94785 29.9404 6.94785 29.8939 6.9948 29.8939C7.22952 29.8009 7.41729 29.7544 7.65202 29.7544C7.18257 29.3825 6.52535 29.2895 5.96202 29.5684C5.91508 29.5684 5.91508 29.6149 5.86814 29.6149L2.30038 31.0562C2.20649 31.1027 2.15954 31.1492 2.1126 31.2422C2.06566 31.3351 2.06566 31.4281 2.1126 31.4746L10.7034 46.724L3.19232 31.8001Z" fill="#FDE2D6"/>
<path d="M6.90087 26.6397C6.90087 26.6862 9.62364 31.3354 9.62364 31.3354C9.62364 31.3819 6.10282 23.8966 6.10282 23.8966C6.05588 23.8037 6.05588 23.7107 6.10282 23.6177C6.14977 23.5247 6.19671 23.4782 6.2906 23.4317L8.45003 22.9203C8.45003 22.7808 8.45003 22.6879 8.45003 22.5484V22.3159L5.30477 23.0598C5.21088 23.0598 5.117 23.1528 5.117 23.2458C5.07005 23.3387 5.07005 23.4317 5.117 23.5247L6.90087 26.6397Z" fill="#FDE2D6"/>
<path d="M19.9512 21.9442C18.8245 22.2696 18.0734 23.2925 18.0734 24.4083V27.8952C17.7917 27.9881 17.4631 28.0346 17.1815 28.0346H15.022C14.6465 28.0346 14.2709 27.9881 13.8954 27.8487C12.0176 27.2908 10.5154 25.1986 10.5154 22.5951V20.9214H12.3462C12.8626 20.9214 13.2851 20.5029 13.2851 19.9915V19.8056C13.2851 19.2941 12.8626 18.8757 12.3462 18.8757H10.5154V17.7134H12.3462C12.8626 17.7134 13.2851 17.295 13.2851 16.7836V16.5976C13.2851 16.0862 12.8626 15.6678 12.3462 15.6678H10.5154V15.1564C10.5154 14.9239 10.5154 14.7379 10.5154 14.552C10.5154 14.552 10.5154 14.552 10.5154 14.5055H12.3462C12.8626 14.5055 13.2851 14.087 13.2851 13.5756V13.3897C13.2851 12.8783 12.8626 12.4598 12.3462 12.4598H11.1257C11.3604 11.9484 11.689 11.4835 12.0645 11.0651C12.8626 10.2282 13.8954 9.7168 15.022 9.7168H17.1815C18.3081 9.7168 19.3409 10.2282 20.1389 11.0651C20.5145 11.437 20.8431 11.9019 21.0778 12.4598H17.0406C16.5242 12.4598 16.1017 12.8783 16.1017 13.3897V13.5756C16.1017 14.087 16.5242 14.5055 17.0406 14.5055H21.6881C21.6881 14.5055 21.6881 14.5055 21.6881 14.552C21.6881 14.7379 21.6881 14.9239 21.6881 15.1564V15.6678H17.0406C16.5242 15.6678 16.1017 16.0862 16.1017 16.5976V16.7836C16.1017 17.295 16.5242 17.7134 17.0406 17.7134H21.6881V18.8757H17.0406C16.5242 18.8757 16.1017 19.2941 16.1017 19.8056V19.9915C16.1017 20.5029 16.5242 20.9214 17.0406 20.9214H21.6881V21.4328L19.9512 21.9442Z" fill="#FFE1C1"/>
<path d="M14.1302 16.5978C14.1302 16.0864 13.7077 15.668 13.1914 15.668H12.3933C12.9097 15.668 13.3322 16.0864 13.3322 16.5978V16.7838C13.3322 17.2952 12.9097 17.7136 12.3933 17.7136H13.1914C13.7077 17.7136 14.1302 17.2952 14.1302 16.7838V16.5978Z" fill="white"/>
<path d="M12.8627 11.0651C13.6607 10.2282 14.6935 9.7168 15.8202 9.7168H15.0221C13.8954 9.7168 12.8627 10.2282 12.0646 11.0651C11.6891 11.437 11.4074 11.9019 11.1257 12.4598H11.9238C12.2054 11.9019 12.5341 11.437 12.8627 11.0651Z" fill="white"/>
<path d="M14.1302 13.3434C14.1302 12.832 13.7077 12.4136 13.1914 12.4136H12.3933C12.9097 12.4136 13.3322 12.832 13.3322 13.3434V13.5294C13.3322 14.0408 12.9097 14.4592 12.3933 14.4592H13.1914C13.7077 14.4592 14.1302 14.0408 14.1302 13.5294V13.3434Z" fill="white"/>
<path d="M12.3933 20.9211H13.1914C13.7077 20.9211 14.1302 20.5027 14.1302 19.9913V19.8053C14.1302 19.2939 13.7077 18.8755 13.1914 18.8755H12.3933C12.9097 18.8755 13.3322 19.2939 13.3322 19.8053V19.9913C13.3322 20.5027 12.9097 20.9211 12.3933 20.9211Z" fill="white"/>
<path d="M11.3606 22.5951V20.9214H10.5625V22.5486C10.5625 25.1522 12.1117 27.2908 13.9425 27.8022C14.318 27.8952 14.6936 27.9882 15.0691 27.9882H15.8672C15.4916 27.9882 15.1161 27.9417 14.7405 27.8022C12.9097 27.2908 11.3606 25.1986 11.3606 22.5951Z" fill="white"/>
<path d="M11.3606 17.7134H10.5625V18.8757H11.3606V17.7134Z" fill="white"/>
<path d="M11.3606 15.1099C11.3606 14.8774 11.3606 14.6914 11.3606 14.5055C11.3606 14.5055 11.3606 14.5055 11.3606 14.459H10.5625C10.5625 14.459 10.5625 14.459 10.5625 14.5055C10.5625 14.6914 10.5625 14.8774 10.5625 15.1099V15.6213H11.3606V15.1099Z" fill="white"/>
<path d="M21.078 12.4134H19.1533C18.543 11.1117 17.3224 9.76339 14.8813 9.67041C14.9283 9.67041 14.9752 9.67041 15.0222 9.67041H17.1816C18.3083 9.67041 19.341 10.1818 20.1391 11.0187C20.5616 11.4371 20.8433 11.902 21.078 12.4134Z" fill="#CAA880"/>
<path d="M21.6881 15.1098V15.6212H19.8104C19.8104 15.4352 19.8104 15.2957 19.8104 15.2027C19.8104 15.2027 19.8104 15.2027 19.8104 15.1563C19.8104 15.1563 19.8104 14.8773 19.7634 14.5054H21.6881C21.6881 14.5054 21.6881 14.5054 21.6881 14.5519C21.6881 14.6913 21.6881 14.8773 21.6881 15.1098Z" fill="#CAA880"/>
<path d="M21.6883 17.7134H19.8105V18.8757H21.6883V17.7134Z" fill="#CAA880"/>
<path d="M19.8105 20.9214H21.6883V21.4328L19.9514 21.9442C19.9044 21.9442 19.8575 21.9907 19.8105 21.9907V20.9214Z" fill="#CAA880"/>
<path d="M30.5138 31.4286L20.186 47.1893V27.5697V24.4548C20.186 24.2223 20.3269 24.0363 20.5616 23.9898L26.0541 22.3161C26.1479 22.2696 26.2418 22.3161 26.2888 22.3626C26.3357 22.4091 26.3827 22.5021 26.3827 22.5951L25.3499 27.1048V27.1978L22.9088 31.4286C22.9088 31.475 22.9088 31.475 22.9088 31.5215C22.9557 31.5215 23.0027 31.5215 23.0027 31.5215L25.303 29.6619C25.6316 29.3829 26.101 29.3364 26.5235 29.4759C26.5704 29.4759 26.5704 29.5224 26.6174 29.5224L30.3729 31.0101C30.4668 31.0566 30.5138 31.1031 30.5607 31.1961C30.5607 31.2426 30.5607 31.3356 30.5138 31.4286Z" fill="#EC1C24"/>
<path d="M25.0681 22.6881C25.1151 22.7346 25.162 22.8275 25.162 22.9205L24.5048 26.9653L22.9087 31.3821L25.3498 27.1513V27.0583L26.4295 22.5951C26.4295 22.5021 26.4295 22.4091 26.3356 22.3626C26.2887 22.3161 26.1948 22.2696 26.1009 22.3161L24.9742 22.6416C24.9742 22.6416 25.0212 22.6881 25.0681 22.6881Z" fill="#9E1D20"/>
<path d="M30.5607 31.1495C30.5138 31.0565 30.4668 31.01 30.3729 30.9635L26.6174 29.4758C26.5704 29.4758 26.5704 29.4293 26.5235 29.4293C26.101 29.2433 25.6316 29.3363 25.303 29.6152L25.1621 29.7547C25.2091 29.7547 25.256 29.7547 25.303 29.8012C25.3499 29.8012 25.3499 29.8477 25.3968 29.8477L29.1524 31.3354C29.2463 31.3819 29.2932 31.4284 29.3402 31.5214C29.3871 31.6144 29.3402 31.7074 29.2932 31.7539L20.186 47.1892L30.5138 31.4284C30.5607 31.3354 30.5607 31.2425 30.5607 31.1495Z" fill="#9E1D20"/>
<path d="M20.9842 24.9197C20.9842 24.6872 21.125 24.5013 21.3597 24.4548L26.2888 22.967L26.3827 22.5951C26.3827 22.5021 26.3827 22.4091 26.2888 22.3626C26.2419 22.3161 26.148 22.2696 26.0541 22.3161L20.5147 23.9434C20.28 23.9898 20.1392 24.2223 20.1392 24.4083V27.5232V47.1428L20.9842 24.9197Z" fill="#FDE2D6"/>
<path d="M16.5713 33.5674C16.5713 34.1718 16.1019 34.6367 15.4916 34.6367C14.8813 34.6367 14.4119 34.1718 14.4119 33.5674C14.4119 32.963 14.8813 32.498 15.4916 32.498C16.0549 32.498 16.5713 32.963 16.5713 33.5674Z" fill="#1D191C"/>
<path d="M16.5713 38.0771C16.5713 38.6815 16.1019 39.1464 15.4916 39.1464C14.8813 39.1464 14.4119 38.6815 14.4119 38.0771C14.4119 37.4727 14.8813 37.0078 15.4916 37.0078C16.0549 37.0078 16.5713 37.4727 16.5713 38.0771Z" fill="#1D191C"/>
<path d="M16.5713 42.5869C16.5713 43.1913 16.1019 43.6562 15.4916 43.6562C14.8813 43.6562 14.4119 43.1913 14.4119 42.5869C14.4119 41.9825 14.8813 41.5176 15.4916 41.5176C16.0549 41.5176 16.5713 41.9825 16.5713 42.5869Z" fill="#1D191C"/>
<path d="M21.078 12.4134H19.1533C18.543 11.1117 17.3224 9.76339 14.8813 9.67041C14.9283 9.67041 14.9752 9.67041 15.0222 9.67041H17.1816C18.3083 9.67041 19.341 10.1818 20.1391 11.0187C20.5616 11.4371 20.8433 11.902 21.078 12.4134Z" fill="#CAA880"/>
<path d="M21.6881 15.1098V15.6212H19.8104C19.8104 15.4352 19.8104 15.2957 19.8104 15.2027C19.8104 15.2027 19.8104 15.2027 19.8104 15.1563C19.8104 15.1563 19.8104 14.8773 19.7634 14.5054H21.6881C21.6881 14.5054 21.6881 14.5054 21.6881 14.5519C21.6881 14.6913 21.6881 14.8773 21.6881 15.1098Z" fill="#CAA880"/>
<path d="M21.6883 17.7134H19.8105V18.8757H21.6883V17.7134Z" fill="#CAA880"/>
<path d="M19.8105 20.9214H21.6883V21.4328L19.9514 21.9442C19.9044 21.9442 19.8575 21.9907 19.8105 21.9907V20.9214Z" fill="#CAA880"/>
<path d="M10.046 10.3677C9.99909 10.3677 9.95215 10.3677 9.95215 10.3677C9.06021 10.2282 8.44993 9.85631 7.98049 9.48438C7.65188 11.1581 7.93355 13.0643 8.44993 15.0169C9.01326 17.0626 9.85826 19.1082 10.5624 20.9214C10.4685 20.4565 8.7316 11.4835 10.046 10.3677Z" fill="#1D191C"/>
<path d="M14.7875 3.90551C14.0364 3.99849 13.3791 4.04499 12.7219 4.04499C13.52 4.74237 15.0691 5.30027 17.0877 5.57922C17.1347 5.57922 17.1347 5.62571 17.1347 5.62571C17.1347 5.6722 17.0877 5.6722 17.0877 5.6722C9.85832 5.25378 7.1825 2.27829 6.90084 1.90636C6.85389 1.85986 6.8539 1.85986 6.8539 1.85986C6.8539 1.85986 5.25779 4.27745 8.21528 8.6012C8.54389 9.11261 9.29499 9.7635 10.093 10.1354C10.1869 10.1819 10.2808 10.2284 10.4217 10.2749C11.0789 10.2749 11.7361 10.1354 12.5811 9.94947C13.8016 10.9258 15.3508 11.4837 17.1347 11.3442C15.6794 10.7863 15.3038 10.2284 15.4916 9.48455C16.7122 9.34507 18.2613 9.25209 20.2799 9.29858C26.6174 9.39156 21.6883 21.433 21.6883 21.433C21.6883 21.433 25.9602 18.504 26.4766 18.6435C29.1524 2.18531 18.5899 3.25462 14.7875 3.90551Z" fill="#1D191C"/>
<path d="M6.57216 3.67311C6.57216 3.67311 5.96188 -1.90593 12.1116 0.697623C17.4163 2.97573 19.5757 6.41613 19.5757 6.41613L12.0177 7.7644L6.57216 3.67311Z" fill="#1D191C"/>
</svg>
