<svg width="106" height="55" viewBox="0 0 106 55" fill="none" xmlns="http://www.w3.org/2000/svg">
<path d="M54.737 28.1758H49.4323V25.8047H53.9389C54.2675 25.8047 54.5492 25.6652 54.737 25.4793C54.9248 25.2933 55.0656 25.0143 55.0656 24.6889C55.0656 24.4099 54.9248 24.131 54.737 23.8985C54.5492 23.7126 54.2675 23.5731 53.9389 23.5731H49.4323V21.2485H54.5961C54.9248 21.2485 55.2064 21.109 55.3942 20.923C55.582 20.7371 55.7228 20.4581 55.7228 20.1327C55.7228 19.8072 55.582 19.5283 55.3942 19.3423C55.2064 19.1564 54.9248 19.0169 54.5961 19.0169H48.3056C47.977 19.0169 47.7423 19.1564 47.5076 19.3423C47.3198 19.5283 47.179 19.8072 47.179 20.1327V29.2916C47.179 29.617 47.3198 29.896 47.5076 30.082C47.6953 30.2679 47.977 30.4074 48.3056 30.4074H54.737C55.0656 30.4074 55.3473 30.2679 55.535 30.082C55.7228 29.896 55.8636 29.617 55.8636 29.2916C55.8636 28.9662 55.7228 28.6872 55.535 28.5012C55.3003 28.3153 55.0186 28.1758 54.737 28.1758Z" fill="#303030"/>
<path d="M66.3322 19.1082C66.1914 19.0617 66.0506 19.0152 65.9097 19.0152C65.4403 19.0152 65.0647 19.2942 64.877 19.7126L62.0603 26.4074L59.2437 19.6661C59.0559 19.2477 58.6334 19.0152 58.2109 18.9687C58.0701 18.9687 57.9292 19.0152 57.7884 19.0617C57.3659 19.2477 57.0842 19.6661 57.0842 20.0845C57.0842 20.224 57.1312 20.3635 57.1781 20.503L61.0275 29.7549C61.1214 29.9408 61.2623 30.1268 61.45 30.2663C61.6378 30.4057 61.8725 30.4522 62.0603 30.4522C62.5298 30.4522 62.9053 30.1733 63.0931 29.7549L66.9425 20.5494C66.9895 20.41 67.0364 20.2705 67.0364 20.131C66.9895 19.7126 66.7547 19.2942 66.3322 19.1082Z" fill="#303030"/>
<path d="M75.768 28.1741H70.4633V25.803H74.9699C75.2985 25.803 75.5332 25.6636 75.768 25.4776C75.9557 25.2916 76.0966 25.0127 76.0966 24.6872C76.0966 24.4083 75.9557 24.1293 75.768 23.8969C75.5802 23.7109 75.2985 23.5714 74.9699 23.5714H70.4633V21.2468H75.6271C75.9557 21.2468 76.2374 21.1074 76.4252 20.9214C76.613 20.7354 76.7538 20.4565 76.7538 20.131C76.7538 19.8056 76.613 19.5266 76.4252 19.3407C76.2374 19.1547 75.9557 19.0152 75.6271 19.0152H69.3366C69.055 19.0152 68.7733 19.1547 68.5386 19.3407C68.3508 19.5266 68.21 19.8056 68.21 20.131V29.2899C68.21 29.6154 68.3508 29.8943 68.5386 30.0803C68.7263 30.2663 69.008 30.4057 69.3366 30.4057H75.768C76.0966 30.4057 76.3782 30.2663 76.566 30.0803C76.7538 29.8943 76.8946 29.6154 76.8946 29.2899C76.8946 28.9645 76.8007 28.6855 76.566 28.4996C76.3782 28.3136 76.0966 28.1741 75.768 28.1741Z" fill="#303030"/>
<path d="M86.9407 19.1082C86.659 19.1082 86.3304 19.2477 86.1426 19.4336C85.9548 19.6196 85.814 19.8986 85.814 20.224V26.268L80.1338 19.5266C79.946 19.2477 79.6174 19.1547 79.2888 19.1547C79.1479 19.1547 79.0071 19.1547 78.9132 19.2012C78.4438 19.3407 78.1621 19.8056 78.1621 20.224V29.3364C78.1621 29.6619 78.3029 29.9408 78.4907 30.1268C78.6785 30.3128 78.9602 30.4522 79.2888 30.4522C79.5704 30.4522 79.899 30.3128 80.0868 30.1268C80.2746 29.9408 80.4154 29.6619 80.4154 29.3364V23.2925L86.0957 30.0803C86.2835 30.3128 86.6121 30.4522 86.9407 30.4522C87.0815 30.4522 87.1754 30.4057 87.3162 30.4057C87.504 30.3128 87.6918 30.1733 87.8326 29.9873C87.9735 29.8013 88.0204 29.5689 88.0204 29.3364V20.224C88.0204 19.8986 87.8796 19.6196 87.6918 19.4336C87.551 19.2477 87.2693 19.1082 86.9407 19.1082Z" fill="#303030"/>
<path d="M98.442 19.3872C98.2542 19.2012 97.9725 19.0617 97.6439 19.0617H90.4145C90.0859 19.0617 89.8042 19.1547 89.6165 19.3872C89.4287 19.5731 89.2878 19.8521 89.2878 20.1775C89.2878 20.503 89.4287 20.7819 89.6165 20.9679C89.8042 21.1538 90.0859 21.2933 90.4145 21.2933H92.9025V29.2899C92.9025 29.6154 93.0434 29.8943 93.2312 30.0803C93.4189 30.2663 93.7006 30.4057 94.0292 30.4057C94.3578 30.4057 94.5925 30.2663 94.8273 30.0803C95.015 29.8943 95.1559 29.6154 95.1559 29.2899V21.2933H97.6439C97.9725 21.2933 98.2542 21.1538 98.442 20.9679C98.6767 20.7819 98.7706 20.503 98.7706 20.1775C98.7706 19.8986 98.6767 19.6196 98.442 19.3872Z" fill="#303030"/>
<path d="M66.4262 32.9628C66.2853 32.9163 66.1445 32.9163 66.0506 32.9163C65.722 32.9163 65.3934 33.0558 65.2056 33.3347L59.4784 40.1226V34.0786C59.4784 33.7997 59.3845 33.4742 59.1498 33.2883C58.962 33.1023 58.6804 32.9628 58.3518 32.9628C58.0701 32.9628 57.7884 33.1023 57.5537 33.2883C57.3659 33.4742 57.2251 33.7532 57.2251 34.0786V43.191C57.2251 43.4235 57.319 43.656 57.4129 43.8419C57.5537 44.0279 57.7415 44.1674 57.9293 44.2604C58.0701 44.3069 58.164 44.3069 58.3048 44.3069C58.6334 44.3069 58.962 44.1674 59.1498 43.9349L64.8301 37.1471V43.191C64.8301 43.5165 64.9709 43.7954 65.1587 43.9814C65.3464 44.1674 65.6281 44.3069 65.9567 44.3069C66.2853 44.3069 66.567 44.1674 66.7548 43.9814C66.9895 43.7954 67.0834 43.5165 67.0834 43.191V34.0321C67.1773 33.5672 66.8956 33.1488 66.4262 32.9628Z" fill="#303030"/>
<path d="M54.2205 37.0541C53.3755 36.5892 52.3427 36.4032 51.1222 36.4032C50.7936 36.4032 50.5119 36.5427 50.3241 36.7287C50.1363 36.9146 49.9955 37.1936 49.9955 37.519C49.9955 37.8445 50.1363 38.1234 50.3241 38.3094C50.5119 38.4954 50.7936 38.6348 51.1222 38.6348C52.0141 38.6348 52.7183 38.7743 53.0938 39.0068C53.3285 39.1462 53.4694 39.2857 53.5633 39.4717C53.6572 39.6577 53.7041 39.8901 53.7041 40.2621C53.7041 40.727 53.6102 41.0989 53.4694 41.3314C53.3755 41.5173 53.2347 41.6568 52.9999 41.7498C52.8122 41.8428 52.6244 41.9358 52.4835 41.9358C52.3897 41.9358 52.3427 41.9358 52.2958 41.9823H52.2488H49.3852V35.1014H54.5491C54.8777 35.1014 55.1594 34.962 55.3471 34.776C55.5349 34.59 55.6758 34.3111 55.6758 33.9856C55.6758 33.6602 55.5819 33.3812 55.3471 33.1953C55.1594 33.0093 54.8777 32.8698 54.5491 32.8698H48.2586C48.1647 32.8698 48.1177 32.8698 48.0238 32.8698C47.7422 32.9163 47.5544 33.0558 47.3666 33.2418C47.2258 33.4277 47.085 33.6602 47.085 33.9391V34.59V43.0516C47.085 43.377 47.2258 43.656 47.4136 43.8419C47.6013 44.0279 47.883 44.1674 48.2116 44.1674H52.2019C52.2488 44.1674 52.3427 44.1674 52.5305 44.1674C52.6713 44.1674 52.906 44.1209 53.1408 44.0744C53.798 43.8884 54.4083 43.563 54.8777 43.1446C55.2063 42.8191 55.488 42.4007 55.6758 41.9358C55.8635 41.4243 55.9574 40.8664 55.9574 40.2156C55.9574 39.5182 55.8166 38.8673 55.488 38.3559C55.2533 37.8445 54.7838 37.3795 54.2205 37.0541Z" fill="#303030"/>
<path d="M76.9416 35.1479C76.7538 34.683 76.4722 34.2646 76.1435 33.9391C75.6741 33.4742 75.1108 33.1488 74.4066 33.0093C74.1719 32.9628 73.9841 32.9163 73.7963 32.9163C73.6555 32.9163 73.5147 32.9163 73.4677 32.9163H69.4775C69.1958 32.9163 68.9142 33.0558 68.6794 33.2418C68.4917 33.4277 68.3508 33.7067 68.3508 34.0321V43.1446C68.3508 43.47 68.4917 43.749 68.6794 43.9349C68.8672 44.1209 69.1489 44.2604 69.4775 44.2604C69.8061 44.2604 70.0408 44.1209 70.2755 43.9349C70.4633 43.749 70.6041 43.47 70.6041 43.1446V35.1014H73.4677C73.5147 35.1014 73.9372 35.1479 74.2658 35.3339C74.4536 35.4269 74.5944 35.5664 74.7352 35.7523C74.8761 35.9848 74.9699 36.3567 74.9699 36.8216C74.9699 37.1471 74.923 37.426 74.8291 37.612C74.7352 37.798 74.5944 37.9375 74.3597 38.0769C73.9372 38.3094 73.28 38.4489 72.388 38.4489C72.1064 38.4489 71.8247 38.5883 71.59 38.7743C71.4022 38.9603 71.2614 39.2392 71.2614 39.5647C71.2614 39.8901 71.4022 40.1691 71.59 40.355C71.7777 40.541 72.0594 40.6805 72.388 40.6805C73.6555 40.6805 74.6883 40.4945 75.4863 40.0296C76.0497 39.7041 76.5191 39.2857 76.8008 38.7278C77.0824 38.1699 77.2702 37.5655 77.2702 36.8681C77.2233 36.2637 77.1294 35.6593 76.9416 35.1479Z" fill="#303030"/>
<path d="M93.6068 42.8656C93.5129 42.3077 93.0435 41.9358 92.4802 41.9358C92.4332 41.9358 92.4332 41.9358 92.4332 41.9358C92.4332 41.9358 92.3863 41.9358 92.3393 41.8893C92.2924 41.8428 92.1985 41.7498 92.1046 41.5638C91.2127 40.0761 89.8982 38.9603 88.9124 38.2629L92.6679 34.7295C92.9027 34.497 92.9965 34.2181 92.9965 33.9391C92.9965 33.6602 92.9027 33.3812 92.6679 33.1953C92.4332 32.9628 92.1515 32.8698 91.8699 32.8698C91.5882 32.8698 91.3066 32.9628 91.1188 33.1953L86.4713 37.612V33.9391C86.4713 33.6137 86.3774 33.3812 86.1427 33.1488C85.9549 32.9628 85.6732 32.8233 85.3446 32.8233C85.016 32.8233 84.7344 32.9628 84.5466 33.1488C84.3588 33.3347 84.218 33.6137 84.218 33.9391V37.5655L79.5705 33.1488C79.3358 32.9628 79.101 32.8233 78.8194 32.8233C78.5377 32.8233 78.2091 32.9628 78.0213 33.1488C77.8336 33.3812 77.6927 33.6602 77.6927 33.8927C77.6927 34.1716 77.8336 34.497 78.0683 34.683L81.8238 38.2164C80.838 38.9138 79.5235 40.0296 78.6316 41.5173C78.4908 41.7498 78.3969 41.8428 78.3499 41.8893H78.303H78.2561C77.7397 41.8893 77.2702 42.2612 77.1294 42.8191C77.1294 42.8656 77.1294 42.9121 77.1294 43.0051C77.1294 43.284 77.2233 43.5165 77.4111 43.7025C77.5519 43.8884 77.7866 44.0279 78.0683 44.0744H78.1152H78.1622C78.1622 44.0744 78.2561 44.0744 78.3499 44.0744C78.5377 44.0744 78.8194 44.0279 79.1011 43.9349C79.5705 43.7954 80.1338 43.377 80.6033 42.6331C81.1666 41.7033 82.0585 40.8664 82.8096 40.3085C83.1852 40.0296 83.5138 39.7971 83.7955 39.6112C83.9363 39.5182 84.0302 39.4717 84.1241 39.4252C84.171 39.4252 84.171 39.3787 84.218 39.3787C84.2649 39.3787 84.3119 39.3322 84.3119 39.2857V43.0051C84.3119 43.3305 84.4527 43.6095 84.6405 43.7954C84.8282 43.9814 85.1099 44.1209 85.4385 44.1209C85.7671 44.1209 86.0488 43.9814 86.2366 43.7954C86.4243 43.6095 86.5652 43.3305 86.5652 43.0051V39.2857C86.6121 39.3322 86.6121 39.3322 86.6591 39.3787C86.706 39.4252 87.3632 39.7506 88.1143 40.3085C88.8654 40.8664 89.7104 41.7033 90.2738 42.5866C90.7432 43.377 91.3066 43.7489 91.776 43.8884C92.0577 43.9814 92.3393 44.0279 92.5271 44.0279C92.574 44.0279 92.6679 44.0279 92.6679 44.0279H92.7149H92.7618H92.8088C93.0904 43.9814 93.3252 43.8419 93.466 43.656C93.6538 43.47 93.7477 43.191 93.7477 42.9586C93.6068 42.9586 93.6068 42.9121 93.6068 42.8656Z" fill="#303030"/>
<path d="M105.859 42.5866L101.352 33.4742C101.165 33.1023 100.789 32.8698 100.367 32.8698C99.9441 32.8698 99.5686 33.1023 99.3808 33.4742L94.9211 42.5866C94.8272 42.7261 94.7803 42.9121 94.7803 43.0981C94.7803 43.4235 94.9211 43.7489 95.2497 43.9814C95.4375 44.1209 95.7192 44.2139 95.9069 44.2139C96.1886 44.2139 96.4703 44.1209 96.705 43.8884C96.7989 43.7954 97.6908 43.0051 98.9114 42.3542C99.6625 41.9358 100.414 41.7033 101.071 41.6103C101.399 41.5638 101.681 41.5173 101.963 41.5173C102.291 41.5173 102.573 41.5638 102.902 41.6103L103.841 43.563C104.028 43.9349 104.404 44.1674 104.826 44.1674C104.967 44.1674 105.155 44.1209 105.296 44.0279C105.671 43.8419 105.906 43.47 105.906 43.0516C106 42.9121 105.953 42.7726 105.859 42.5866ZM100.648 39.4252C99.9911 39.5647 99.3339 39.7506 98.6297 40.0296L100.367 36.4962L101.728 39.2857C101.399 39.3322 101.024 39.3787 100.648 39.4252Z" fill="#303030"/>
<path d="M18.0736 50.7227C18.0267 51.9315 17.0408 52.9544 15.8203 52.9544H15.1161C13.8486 52.9544 12.8628 51.9315 12.8628 50.7227V29.6154C13.0506 29.6619 13.1914 29.7549 13.3792 29.8014C13.8956 29.9408 14.4589 30.0338 15.0692 30.0338H17.2286C17.5103 30.0338 17.8389 29.9873 18.1205 29.9408V50.7227H18.0736Z" fill="white"/>
<path d="M16.6183 50.8622C16.2897 51.1412 15.9141 51.2806 15.4917 51.2806C15.0692 51.2806 14.6467 51.1412 14.365 50.8622C13.8017 50.4438 13.52 50.9087 13.8017 51.3736C14.1772 51.885 14.7875 52.257 15.4917 52.257C16.1958 52.257 16.8061 51.9315 17.1816 51.3736C17.4633 50.8622 17.1816 50.3973 16.6183 50.8622Z" fill="#1D191C"/>
<path d="M32.5793 30.4987C32.3446 29.8013 31.8282 29.2899 31.1709 29.011L27.6501 27.6162C27.5093 27.5697 27.4154 27.4303 27.4624 27.2908L28.8707 21.2003C29.0585 20.5494 28.636 19.3871 27.2746 19.7126L26.4765 19.9915L24.0354 20.7354H23.9885V20.6889L26.1949 19.2012C26.3826 19.0617 26.4765 18.8757 26.4765 18.6433C26.5235 12.0879 25.3029 8.32206 18.8246 7.62468C18.8246 7.62468 17.9796 7.62468 17.1346 7.62468H16.2896H15.0221C13.2383 7.62468 11.6891 8.41504 10.5155 9.62383C9.3419 10.8326 8.59079 12.5063 8.44996 14.366C8.44996 14.645 8.44996 14.8774 8.44996 15.1099V20.1775L4.41275 21.1074C3.75554 21.2468 3.23915 21.7117 2.95748 22.3161C2.8636 22.6416 2.81665 22.9205 2.81665 23.1995C2.81665 23.5714 2.91054 23.9434 3.09832 24.2688L4.92914 27.4303C4.97609 27.5232 4.97609 27.5697 4.92914 27.6627C4.92914 27.7557 4.83525 27.8022 4.74136 27.8487L1.45527 29.104C0.798051 29.3364 0.328609 29.8943 0.0938884 30.4987C0.0469442 30.7312 0 31.0101 0 31.2891C0 31.7075 0.0938884 32.0795 0.328609 32.4514L10.0461 49.6534C10.4216 50.3508 10.7502 51.0947 10.9849 51.8385C11.5013 53.6517 13.1444 55 15.163 55H15.8671C17.7919 55 19.4349 53.7447 19.9982 51.978C20.2799 51.0947 20.6554 50.2578 21.1718 49.5139L32.2976 32.5444C32.5793 32.1724 32.6732 31.7075 32.6732 31.2426C32.6732 31.0101 32.6732 30.7312 32.5793 30.4987ZM10.7502 46.7244L2.15943 31.4751C2.11249 31.4286 2.11249 31.3356 2.15943 31.2426C2.20638 31.1496 2.25332 31.1031 2.34721 31.0566L5.91497 29.6154C5.96191 29.6154 5.96191 29.5689 6.00886 29.5689C6.61913 29.2899 7.27635 29.3829 7.79274 29.8478L9.57662 31.4286C9.57662 31.4286 9.6705 31.4751 9.6705 31.4286C9.6705 31.3821 9.71745 31.3821 9.6705 31.3356L6.94774 26.7329C6.94774 26.7329 6.94774 26.6864 6.9008 26.6864L5.06997 23.5714C5.02303 23.4784 5.02303 23.3855 5.06997 23.2925C5.11692 23.1995 5.16386 23.153 5.25775 23.1065L8.40301 22.3626V22.5951C8.40301 24.8267 9.29495 26.8724 10.7033 28.2671V46.7244H10.7502ZM18.0735 50.7227C18.0266 51.9315 17.0407 52.9543 15.8202 52.9543H15.116C13.8485 52.9543 12.8627 51.9315 12.8627 50.7227V29.6154C13.0505 29.6619 13.1913 29.7549 13.3791 29.8013C13.8955 29.9408 14.4588 30.0338 15.0691 30.0338H17.2285C17.5102 30.0338 17.8388 29.9873 18.1205 29.9408V50.7227H18.0735ZM19.9513 21.9442C18.8246 22.2697 18.0735 23.2925 18.0735 24.4083V27.8952C17.7919 27.9882 17.4632 28.0347 17.1816 28.0347H15.0221C14.6466 28.0347 14.271 27.9882 13.8955 27.8487C12.0177 27.2908 10.5155 25.1986 10.5155 22.5951V20.9214H12.3463C12.8627 20.9214 13.2852 20.503 13.2852 19.9915V19.8056C13.2852 19.2942 12.8627 18.8757 12.3463 18.8757H10.5155V17.7134H12.3463C12.8627 17.7134 13.2852 17.295 13.2852 16.7836V16.5976C13.2852 16.0862 12.8627 15.6678 12.3463 15.6678H10.5155V15.1564C10.5155 14.9239 10.5155 14.738 10.5155 14.552C10.5155 14.552 10.5155 14.552 10.5155 14.5055H12.3463C12.8627 14.5055 13.2852 14.0871 13.2852 13.5757V13.3897C13.2852 12.8783 12.8627 12.4598 12.3463 12.4598H11.1258C11.3605 11.9484 11.6891 11.4835 12.0647 11.0651C12.8627 10.2282 13.8955 9.71682 15.0221 9.71682H17.1816C18.3082 9.71682 19.341 10.2282 20.1391 11.0651C20.5146 11.437 20.8432 11.9019 21.0779 12.4598H17.0407C16.5244 12.4598 16.1019 12.8783 16.1019 13.3897V13.5757C16.1019 14.0871 16.5244 14.5055 17.0407 14.5055H21.6882C21.6882 14.5055 21.6882 14.5055 21.6882 14.552C21.6882 14.738 21.6882 14.9239 21.6882 15.1564V15.6678H17.0407C16.5244 15.6678 16.1019 16.0862 16.1019 16.5976V16.7836C16.1019 17.295 16.5244 17.7134 17.0407 17.7134H21.6882V18.8757H17.0407C16.5244 18.8757 16.1019 19.2942 16.1019 19.8056V19.9915C16.1019 20.503 16.5244 20.9214 17.0407 20.9214H21.6882V21.4328L19.9513 21.9442ZM30.5137 31.4286L20.186 47.1893V27.5697V24.4548C20.186 24.2223 20.3268 24.0363 20.5616 23.9899L26.054 22.3161C26.1479 22.2696 26.2418 22.3161 26.2888 22.3626C26.3357 22.4091 26.3826 22.5021 26.3826 22.5951L25.3499 27.1513L22.9088 31.3821C22.9088 31.4286 22.9088 31.4286 22.9088 31.4751C22.9557 31.4751 23.0027 31.4751 23.0027 31.4751L25.3029 29.6154C25.6315 29.3364 26.101 29.2899 26.5235 29.4294C26.5704 29.4294 26.5704 29.4759 26.6174 29.4759L30.3729 30.9636C30.4668 31.0101 30.5137 31.0566 30.5607 31.1496C30.5607 31.2426 30.5607 31.3356 30.5137 31.4286Z" fill="#1D191C"/>
<path d="M17.3225 30.0803V50.1648C17.3225 52.7219 15.8203 52.9543 15.8203 52.9543C17.0409 52.9543 18.0736 51.978 18.0736 50.7227V29.9873C17.8389 30.0338 17.6042 30.0803 17.3225 30.0803Z" fill="#D9D9D9"/>
<path d="M10.7503 46.7244L2.15948 31.4751C2.11253 31.4286 2.11253 31.3356 2.15948 31.2426C2.20642 31.1496 2.25336 31.1031 2.34725 31.0566L5.91501 29.6154C5.96196 29.6154 5.96196 29.5689 6.0089 29.5689C6.61918 29.2899 7.27639 29.3829 7.79278 29.8478L9.57666 31.4286C9.57666 31.4286 9.67055 31.4751 9.67055 31.4286C9.67055 31.3821 9.71749 31.3821 9.67055 31.3356L6.94778 26.7329C6.94778 26.7329 6.94778 26.6864 6.90084 26.6864L5.07002 23.5714C5.02307 23.4784 5.02307 23.3855 5.07002 23.2925C5.11696 23.1995 5.1639 23.153 5.25779 23.1065L8.40305 22.3626V22.5951C8.40305 24.8267 9.29499 26.8724 10.7033 28.2671V46.7244H10.7503Z" fill="#EC1C24"/>
<path d="M3.19232 31.8005C3.14537 31.7075 3.14537 31.661 3.19232 31.5681C3.23926 31.4751 3.28621 31.4286 3.33315 31.3821L6.90091 29.9408C6.94785 29.9408 6.94785 29.8943 6.9948 29.8943C7.22952 29.8014 7.41729 29.7549 7.65202 29.7549C7.18257 29.3829 6.52535 29.29 5.96202 29.5689C5.91508 29.5689 5.91508 29.6154 5.86814 29.6154L2.30038 31.0566C2.20649 31.1031 2.15954 31.1496 2.1126 31.2426C2.06566 31.3356 2.06566 31.4286 2.1126 31.4751L10.7034 46.7244L3.19232 31.8005Z" fill="#FDE2D6"/>
<path d="M6.90087 26.6399C6.90087 26.6864 9.62364 31.3356 9.62364 31.3356C9.62364 31.3821 6.10282 23.8969 6.10282 23.8969C6.05588 23.8039 6.05588 23.7109 6.10282 23.6179C6.14977 23.5249 6.19671 23.4784 6.2906 23.432L8.45003 22.9205C8.45003 22.7811 8.45003 22.6881 8.45003 22.5486V22.3161L5.30477 23.06C5.21088 23.06 5.117 23.153 5.117 23.246C5.07005 23.339 5.07005 23.432 5.117 23.5249L6.90087 26.6399Z" fill="#FDE2D6"/>
<path d="M19.9512 21.9442C18.8245 22.2697 18.0734 23.2925 18.0734 24.4083V27.8952C17.7917 27.9882 17.4631 28.0347 17.1815 28.0347H15.022C14.6465 28.0347 14.2709 27.9882 13.8954 27.8487C12.0176 27.2908 10.5154 25.1987 10.5154 22.5951V20.9214H12.3462C12.8626 20.9214 13.2851 20.503 13.2851 19.9916V19.8056C13.2851 19.2942 12.8626 18.8757 12.3462 18.8757H10.5154V17.7134H12.3462C12.8626 17.7134 13.2851 17.295 13.2851 16.7836V16.5976C13.2851 16.0862 12.8626 15.6678 12.3462 15.6678H10.5154V15.1564C10.5154 14.9239 10.5154 14.738 10.5154 14.552C10.5154 14.552 10.5154 14.552 10.5154 14.5055H12.3462C12.8626 14.5055 13.2851 14.0871 13.2851 13.5757V13.3897C13.2851 12.8783 12.8626 12.4599 12.3462 12.4599H11.1257C11.3604 11.9484 11.689 11.4835 12.0645 11.0651C12.8626 10.2282 13.8954 9.71683 15.022 9.71683H17.1815C18.3081 9.71683 19.3409 10.2282 20.1389 11.0651C20.5145 11.437 20.8431 11.9019 21.0778 12.4599H17.0406C16.5242 12.4599 16.1017 12.8783 16.1017 13.3897V13.5757C16.1017 14.0871 16.5242 14.5055 17.0406 14.5055H21.6881C21.6881 14.5055 21.6881 14.5055 21.6881 14.552C21.6881 14.738 21.6881 14.9239 21.6881 15.1564V15.6678H17.0406C16.5242 15.6678 16.1017 16.0862 16.1017 16.5976V16.7836C16.1017 17.295 16.5242 17.7134 17.0406 17.7134H21.6881V18.8757H17.0406C16.5242 18.8757 16.1017 19.2942 16.1017 19.8056V19.9916C16.1017 20.503 16.5242 20.9214 17.0406 20.9214H21.6881V21.4328L19.9512 21.9442Z" fill="#FFE1C1"/>
<path d="M14.1302 16.5976C14.1302 16.0862 13.7077 15.6678 13.1914 15.6678H12.3933C12.9097 15.6678 13.3322 16.0862 13.3322 16.5976V16.7836C13.3322 17.295 12.9097 17.7134 12.3933 17.7134H13.1914C13.7077 17.7134 14.1302 17.295 14.1302 16.7836V16.5976Z" fill="white"/>
<path d="M12.8627 11.0651C13.6607 10.2282 14.6935 9.71683 15.8202 9.71683H15.0221C13.8954 9.71683 12.8627 10.2282 12.0646 11.0651C11.6891 11.437 11.4074 11.902 11.1257 12.4599H11.9238C12.2054 11.902 12.5341 11.437 12.8627 11.0651Z" fill="white"/>
<path d="M14.1302 13.3432C14.1302 12.8318 13.7077 12.4134 13.1914 12.4134H12.3933C12.9097 12.4134 13.3322 12.8318 13.3322 13.3432V13.5292C13.3322 14.0406 12.9097 14.459 12.3933 14.459H13.1914C13.7077 14.459 14.1302 14.0406 14.1302 13.5292V13.3432Z" fill="white"/>
<path d="M12.3933 20.9214H13.1914C13.7077 20.9214 14.1302 20.503 14.1302 19.9916V19.8056C14.1302 19.2942 13.7077 18.8757 13.1914 18.8757H12.3933C12.9097 18.8757 13.3322 19.2942 13.3322 19.8056V19.9916C13.3322 20.503 12.9097 20.9214 12.3933 20.9214Z" fill="white"/>
<path d="M11.3606 22.5951V20.9214H10.5625V22.5486C10.5625 25.1522 12.1117 27.2908 13.9425 27.8022C14.318 27.8952 14.6936 27.9882 15.0691 27.9882H15.8672C15.4916 27.9882 15.1161 27.9417 14.7405 27.8022C12.9097 27.2908 11.3606 25.1986 11.3606 22.5951Z" fill="white"/>
<path d="M11.3606 17.7134H10.5625V18.8757H11.3606V17.7134Z" fill="white"/>
<path d="M11.3606 15.1099C11.3606 14.8774 11.3606 14.6915 11.3606 14.5055C11.3606 14.5055 11.3606 14.5055 11.3606 14.459H10.5625C10.5625 14.459 10.5625 14.459 10.5625 14.5055C10.5625 14.6915 10.5625 14.8774 10.5625 15.1099V15.6213H11.3606V15.1099Z" fill="white"/>
<path d="M21.078 12.4134H19.1533C18.543 11.1116 17.3224 9.76332 14.8813 9.67033C14.9283 9.67033 14.9752 9.67033 15.0222 9.67033H17.1816C18.3083 9.67033 19.341 10.1817 20.1391 11.0186C20.5616 11.437 20.8433 11.9019 21.078 12.4134Z" fill="#CAA880"/>
<path d="M21.6881 15.1099V15.6213H19.8104C19.8104 15.4353 19.8104 15.2959 19.8104 15.2029C19.8104 15.2029 19.8104 15.2029 19.8104 15.1564C19.8104 15.1564 19.8104 14.8774 19.7634 14.5055H21.6881C21.6881 14.5055 21.6881 14.5055 21.6881 14.552C21.6881 14.6915 21.6881 14.8774 21.6881 15.1099Z" fill="#CAA880"/>
<path d="M21.6883 17.7134H19.8105V18.8757H21.6883V17.7134Z" fill="#CAA880"/>
<path d="M19.8105 20.9214H21.6883V21.4328L19.9514 21.9442C19.9044 21.9442 19.8575 21.9907 19.8105 21.9907V20.9214Z" fill="#CAA880"/>
<path d="M30.5138 31.4286L20.186 47.1893V27.5697V24.4548C20.186 24.2223 20.3269 24.0363 20.5616 23.9898L26.0541 22.3161C26.1479 22.2696 26.2418 22.3161 26.2888 22.3626C26.3357 22.4091 26.3827 22.5021 26.3827 22.5951L25.3499 27.1048V27.1978L22.9088 31.4286C22.9088 31.475 22.9088 31.475 22.9088 31.5215C22.9557 31.5215 23.0027 31.5215 23.0027 31.5215L25.303 29.6619C25.6316 29.3829 26.101 29.3364 26.5235 29.4759C26.5704 29.4759 26.5704 29.5224 26.6174 29.5224L30.3729 31.0101C30.4668 31.0566 30.5138 31.1031 30.5607 31.1961C30.5607 31.2426 30.5607 31.3356 30.5138 31.4286Z" fill="#EC1C24"/>
<path d="M25.0681 22.6881C25.1151 22.7346 25.162 22.8275 25.162 22.9205L24.5048 26.9653L22.9087 31.3821L25.3498 27.1513V27.0583L26.4295 22.5951C26.4295 22.5021 26.4295 22.4091 26.3356 22.3626C26.2887 22.3161 26.1948 22.2696 26.1009 22.3161L24.9742 22.6416C24.9742 22.6416 25.0212 22.6881 25.0681 22.6881Z" fill="#9E1D20"/>
<path d="M30.5607 31.1496C30.5138 31.0566 30.4668 31.0101 30.3729 30.9636L26.6174 29.4759C26.5704 29.4759 26.5704 29.4294 26.5235 29.4294C26.101 29.2434 25.6316 29.3364 25.303 29.6154L25.1621 29.7549C25.2091 29.7549 25.256 29.7549 25.303 29.8013C25.3499 29.8013 25.3499 29.8478 25.3968 29.8478L29.1524 31.3356C29.2463 31.3821 29.2932 31.4286 29.3402 31.5215C29.3871 31.6145 29.3402 31.7075 29.2932 31.754L20.186 47.1893L30.5138 31.4286C30.5607 31.3356 30.5607 31.2426 30.5607 31.1496Z" fill="#9E1D20"/>
<path d="M20.9842 24.9197C20.9842 24.6872 21.125 24.5013 21.3597 24.4548L26.2888 22.967L26.3827 22.5951C26.3827 22.5021 26.3827 22.4091 26.2888 22.3626C26.2419 22.3161 26.148 22.2696 26.0541 22.3161L20.5147 23.9434C20.28 23.9898 20.1392 24.2223 20.1392 24.4083V27.5232V47.1428L20.9842 24.9197Z" fill="#FDE2D6"/>
<path d="M16.5713 33.5672C16.5713 34.1716 16.1019 34.6365 15.4916 34.6365C14.8813 34.6365 14.4119 34.1716 14.4119 33.5672C14.4119 32.9628 14.8813 32.4979 15.4916 32.4979C16.0549 32.4979 16.5713 32.9628 16.5713 33.5672Z" fill="#1D191C"/>
<path d="M16.5713 38.0769C16.5713 38.6813 16.1019 39.1462 15.4916 39.1462C14.8813 39.1462 14.4119 38.6813 14.4119 38.0769C14.4119 37.4725 14.8813 37.0076 15.4916 37.0076C16.0549 37.0076 16.5713 37.4725 16.5713 38.0769Z" fill="#1D191C"/>
<path d="M16.5713 42.5866C16.5713 43.191 16.1019 43.656 15.4916 43.656C14.8813 43.656 14.4119 43.191 14.4119 42.5866C14.4119 41.9823 14.8813 41.5173 15.4916 41.5173C16.0549 41.5173 16.5713 41.9823 16.5713 42.5866Z" fill="#1D191C"/>
<path d="M21.078 12.4134H19.1533C18.543 11.1116 17.3224 9.76332 14.8813 9.67033C14.9283 9.67033 14.9752 9.67033 15.0222 9.67033H17.1816C18.3083 9.67033 19.341 10.1817 20.1391 11.0186C20.5616 11.437 20.8433 11.9019 21.078 12.4134Z" fill="#CAA880"/>
<path d="M21.6881 15.1099V15.6213H19.8104C19.8104 15.4353 19.8104 15.2959 19.8104 15.2029C19.8104 15.2029 19.8104 15.2029 19.8104 15.1564C19.8104 15.1564 19.8104 14.8774 19.7634 14.5055H21.6881C21.6881 14.5055 21.6881 14.5055 21.6881 14.552C21.6881 14.6915 21.6881 14.8774 21.6881 15.1099Z" fill="#CAA880"/>
<path d="M21.6883 17.7134H19.8105V18.8757H21.6883V17.7134Z" fill="#CAA880"/>
<path d="M19.8105 20.9214H21.6883V21.4328L19.9514 21.9442C19.9044 21.9442 19.8575 21.9907 19.8105 21.9907V20.9214Z" fill="#CAA880"/>
<path d="M10.046 10.3677C9.99909 10.3677 9.95215 10.3677 9.95215 10.3677C9.06021 10.2282 8.44993 9.8563 7.98049 9.48436C7.65188 11.1581 7.93355 13.0642 8.44993 15.0169C9.01326 17.0625 9.85826 19.1082 10.5624 20.9214C10.4685 20.4565 8.7316 11.4835 10.046 10.3677Z" fill="#1D191C"/>
<path d="M14.7875 3.90533C14.0364 3.99831 13.3791 4.0448 12.7219 4.0448C13.52 4.74218 15.0691 5.30009 17.0877 5.57904C17.1347 5.57904 17.1347 5.62553 17.1347 5.62553C17.1347 5.67202 17.0877 5.67202 17.0877 5.67202C9.85832 5.25359 7.1825 2.27811 6.90084 1.90617C6.85389 1.85968 6.8539 1.85968 6.8539 1.85968C6.8539 1.85968 5.25779 4.27726 8.21528 8.60102C8.54389 9.11243 9.29499 9.76331 10.093 10.1353C10.1869 10.1817 10.2808 10.2282 10.4217 10.2747C11.0789 10.2747 11.7361 10.1353 12.5811 9.94928C13.8016 10.9256 15.3508 11.4835 17.1347 11.344C15.6794 10.7861 15.3038 10.2282 15.4916 9.48436C16.7122 9.34489 18.2613 9.2519 20.2799 9.2984C26.6174 9.39138 21.6883 21.4328 21.6883 21.4328C21.6883 21.4328 25.9602 18.5038 26.4766 18.6433C29.1524 2.18512 18.5899 3.25444 14.7875 3.90533Z" fill="#1D191C"/>
<path d="M6.57216 3.67286C6.57216 3.67286 5.96188 -1.90617 12.1116 0.697378C17.4163 2.97548 19.5757 6.41589 19.5757 6.41589L12.0177 7.76416L6.57216 3.67286Z" fill="#1D191C"/>
</svg>
